<svg width="364" height="402" viewBox="0 0 364 402" fill="none" xmlns="http://www.w3.org/2000/svg">
<g opacity="0.91" filter="url(#filter0_d_304_129)">
<path d="M251.207 126.189C173.824 58.3925 121.343 43.0847 87.6888 45.508C54.0574 47.9297 39.0536 68.0739 36.6498 71.6386L36.1209 71.282L36.6497 71.6386C36.4692 71.9064 36.3977 72.1885 36.4013 72.5746L37.6178 203.444C38.0596 250.969 58.1975 295.262 89.0656 322.88C119.915 350.481 161.468 361.427 204.87 342.346C249.568 322.695 290.381 290.751 308.146 238.861C314.392 220.617 314.734 205.17 311.568 192.091C308.4 179.008 301.713 168.252 293.837 159.413C285.96 150.572 276.904 143.659 269.017 138.263C265.926 136.149 263.022 134.272 260.435 132.6C259.72 132.138 259.029 131.691 258.365 131.259C255.317 129.278 252.815 127.598 251.207 126.189Z" stroke="#4F4F4F" stroke-width="1.27565"/>
</g>
<mask id="mask0_304_129" style="mask-type:alpha" maskUnits="userSpaceOnUse" x="35" y="7" width="232" height="249">
<path opacity="0.69" d="M214.783 74.171C87.0927 -37.5872 40.6889 22.3141 36.1349 28.9673C35.8625 29.3653 35.7591 29.7999 35.7635 30.2821L36.4989 109.309C37.3865 204.695 120.973 290.944 202.021 240.641C228.477 224.22 250.885 200.976 262.156 168.087C282.993 107.288 225.185 83.2745 214.783 74.171Z" fill="#25356A" fill-opacity="0.35"/>
</mask>
<g mask="url(#mask0_304_129)">
<circle cx="37.1218" cy="3.85687" r="3.23508" fill="#25356A" fill-opacity="0.35"/>
<circle cx="47.9055" cy="3.85687" r="3.23508" fill="#25356A" fill-opacity="0.35"/>
<circle cx="58.6892" cy="3.85687" r="3.23508" fill="#25356A" fill-opacity="0.35"/>
<circle cx="69.4729" cy="3.85687" r="3.23508" fill="#25356A" fill-opacity="0.35"/>
<circle cx="80.2566" cy="3.85687" r="3.23508" fill="#25356A" fill-opacity="0.35"/>
<circle cx="91.0403" cy="3.85687" r="3.23508" fill="#25356A" fill-opacity="0.35"/>
<circle cx="101.823" cy="3.85687" r="3.23508" fill="#25356A" fill-opacity="0.35"/>
<circle cx="112.607" cy="3.85687" r="3.23508" fill="#25356A" fill-opacity="0.35"/>
<circle cx="123.39" cy="3.85687" r="3.23508" fill="#25356A" fill-opacity="0.35"/>
<circle cx="134.174" cy="3.85687" r="3.23508" fill="#25356A" fill-opacity="0.35"/>
<circle cx="144.958" cy="3.85687" r="3.23508" fill="#25356A" fill-opacity="0.35"/>
<circle cx="155.741" cy="3.85687" r="3.23508" fill="#25356A" fill-opacity="0.35"/>
<circle cx="166.525" cy="3.85687" r="3.23508" fill="#25356A" fill-opacity="0.35"/>
<circle cx="177.309" cy="3.85687" r="3.23508" fill="#25356A" fill-opacity="0.35"/>
<circle cx="188.092" cy="3.85687" r="3.23508" fill="#25356A" fill-opacity="0.35"/>
<circle cx="198.876" cy="3.85687" r="3.23508" fill="#25356A" fill-opacity="0.35"/>
<circle cx="209.659" cy="3.85687" r="3.23508" fill="#25356A" fill-opacity="0.35"/>
<circle cx="220.443" cy="3.85687" r="3.23508" fill="#25356A" fill-opacity="0.35"/>
<circle cx="231.227" cy="3.85687" r="3.23508" fill="#25356A" fill-opacity="0.35"/>
<circle cx="242.01" cy="3.85687" r="3.23508" fill="#25356A" fill-opacity="0.35"/>
<circle cx="252.794" cy="3.85687" r="3.23508" fill="#25356A" fill-opacity="0.35"/>
<circle cx="263.577" cy="3.85687" r="3.23508" fill="#25356A" fill-opacity="0.35"/>
<circle cx="37.1218" cy="14.6404" r="3.23508" fill="#25356A" fill-opacity="0.35"/>
<circle cx="58.6892" cy="14.6404" r="3.23508" fill="#25356A" fill-opacity="0.35"/>
<circle cx="69.4729" cy="14.6404" r="3.23508" fill="#25356A" fill-opacity="0.35"/>
<circle cx="80.2566" cy="14.6404" r="3.23508" fill="#25356A" fill-opacity="0.35"/>
<circle cx="91.0403" cy="14.6404" r="3.23508" fill="#25356A" fill-opacity="0.35"/>
<circle cx="101.823" cy="14.6404" r="3.23508" fill="#25356A" fill-opacity="0.35"/>
<circle cx="134.174" cy="14.6404" r="3.23508" fill="#25356A" fill-opacity="0.35"/>
<circle cx="144.958" cy="14.6404" r="3.23508" fill="#25356A" fill-opacity="0.35"/>
<circle cx="155.741" cy="14.6404" r="3.23508" fill="#25356A" fill-opacity="0.35"/>
<circle cx="166.525" cy="14.6404" r="3.23508" fill="#25356A" fill-opacity="0.35"/>
<circle cx="177.309" cy="14.6404" r="3.23508" fill="#25356A" fill-opacity="0.35"/>
<circle cx="188.092" cy="14.6404" r="3.23508" fill="#25356A" fill-opacity="0.35"/>
<circle cx="198.876" cy="14.6404" r="3.23508" fill="#25356A" fill-opacity="0.35"/>
<circle cx="209.659" cy="14.6404" r="3.23508" fill="#25356A" fill-opacity="0.35"/>
<circle cx="220.443" cy="14.6404" r="3.23508" fill="#25356A" fill-opacity="0.35"/>
<circle cx="231.227" cy="14.6404" r="3.23508" fill="#25356A" fill-opacity="0.35"/>
<circle cx="242.01" cy="14.6404" r="3.23508" fill="#25356A" fill-opacity="0.35"/>
<circle cx="252.794" cy="14.6404" r="3.23508" fill="#25356A" fill-opacity="0.35"/>
<circle cx="263.577" cy="14.6404" r="3.23508" fill="#25356A" fill-opacity="0.35"/>
<circle cx="47.9055" cy="25.4241" r="3.23508" fill="#25356A" fill-opacity="0.35"/>
<circle cx="58.6892" cy="25.4241" r="3.23508" fill="#25356A" fill-opacity="0.35"/>
<circle cx="69.4729" cy="25.4241" r="3.23508" fill="#25356A" fill-opacity="0.35"/>
<circle cx="80.2566" cy="25.4241" r="3.23508" fill="#25356A" fill-opacity="0.35"/>
<circle cx="91.0403" cy="25.4241" r="3.23508" fill="#25356A" fill-opacity="0.35"/>
<circle cx="101.823" cy="25.4241" r="3.23508" fill="#25356A" fill-opacity="0.35"/>
<circle cx="112.607" cy="25.4241" r="3.23508" fill="#25356A" fill-opacity="0.35"/>
<circle cx="123.39" cy="25.4241" r="3.23508" fill="#25356A" fill-opacity="0.35"/>
<circle cx="134.174" cy="25.4241" r="3.23508" fill="#25356A" fill-opacity="0.35"/>
<circle cx="155.741" cy="25.4241" r="3.23508" fill="#25356A" fill-opacity="0.35"/>
<circle cx="166.525" cy="25.4241" r="3.23508" fill="#25356A" fill-opacity="0.35"/>
<circle cx="177.309" cy="25.4241" r="3.23508" fill="#25356A" fill-opacity="0.35"/>
<circle cx="188.092" cy="25.4241" r="3.23508" fill="#25356A" fill-opacity="0.35"/>
<circle cx="198.876" cy="25.4241" r="3.23508" fill="#25356A" fill-opacity="0.35"/>
<circle cx="209.659" cy="25.4241" r="3.23508" fill="#25356A" fill-opacity="0.35"/>
<circle cx="220.443" cy="25.4241" r="3.23508" fill="#25356A" fill-opacity="0.35"/>
<circle cx="231.227" cy="25.4241" r="3.23508" fill="#25356A" fill-opacity="0.35"/>
<circle cx="242.01" cy="25.4241" r="3.23508" fill="#25356A" fill-opacity="0.35"/>
<circle cx="252.794" cy="25.4241" r="3.23508" fill="#25356A" fill-opacity="0.35"/>
<circle cx="263.577" cy="25.4241" r="3.23508" fill="#25356A" fill-opacity="0.35"/>
<circle cx="47.9055" cy="36.2078" r="3.23508" fill="#25356A" fill-opacity="0.35"/>
<circle cx="58.6892" cy="36.2078" r="3.23508" fill="#25356A" fill-opacity="0.35"/>
<circle cx="69.4729" cy="36.2078" r="3.23508" fill="#25356A" fill-opacity="0.35"/>
<circle cx="80.2566" cy="36.2078" r="3.23508" fill="#25356A" fill-opacity="0.35"/>
<circle cx="91.0403" cy="36.2078" r="3.23508" fill="#25356A" fill-opacity="0.35"/>
<circle cx="101.823" cy="36.2078" r="3.23508" fill="#25356A" fill-opacity="0.35"/>
<circle cx="112.607" cy="36.2078" r="3.23508" fill="#25356A" fill-opacity="0.35"/>
<circle cx="123.39" cy="36.2078" r="3.23508" fill="#25356A" fill-opacity="0.35"/>
<circle cx="134.174" cy="36.2078" r="3.23508" fill="#25356A" fill-opacity="0.35"/>
<circle cx="144.958" cy="36.2078" r="3.23508" fill="#25356A" fill-opacity="0.35"/>
<circle cx="155.741" cy="36.2078" r="3.23508" fill="#25356A" fill-opacity="0.35"/>
<circle cx="177.309" cy="36.2078" r="3.23508" fill="#25356A" fill-opacity="0.35"/>
<circle cx="188.092" cy="36.2078" r="3.23508" fill="#25356A" fill-opacity="0.35"/>
<circle cx="198.876" cy="36.2078" r="3.23508" fill="#25356A" fill-opacity="0.35"/>
<circle cx="209.659" cy="36.2078" r="3.23508" fill="#25356A" fill-opacity="0.35"/>
<circle cx="220.443" cy="36.2078" r="3.23508" fill="#25356A" fill-opacity="0.35"/>
<circle cx="231.227" cy="36.2078" r="3.23508" fill="#25356A" fill-opacity="0.35"/>
<circle cx="242.01" cy="36.2078" r="3.23508" fill="#25356A" fill-opacity="0.35"/>
<circle cx="252.794" cy="36.2078" r="3.23508" fill="#25356A" fill-opacity="0.35"/>
<circle cx="263.577" cy="36.2078" r="3.23508" fill="#25356A" fill-opacity="0.35"/>
<circle cx="47.9055" cy="46.9912" r="3.23508" fill="#25356A" fill-opacity="0.35"/>
<circle cx="58.6892" cy="46.9912" r="3.23508" fill="#25356A" fill-opacity="0.35"/>
<circle cx="69.4729" cy="46.9912" r="3.23508" fill="#25356A" fill-opacity="0.35"/>
<circle cx="80.2566" cy="46.9912" r="3.23508" fill="#25356A" fill-opacity="0.35"/>
<circle cx="91.0403" cy="46.9912" r="3.23508" fill="#25356A" fill-opacity="0.35"/>
<circle cx="101.823" cy="46.9912" r="3.23508" fill="#25356A" fill-opacity="0.35"/>
<circle cx="112.607" cy="46.9912" r="3.23508" fill="#25356A" fill-opacity="0.35"/>
<circle cx="123.39" cy="46.9912" r="3.23508" fill="#25356A" fill-opacity="0.35"/>
<circle cx="134.174" cy="46.9912" r="3.23508" fill="#25356A" fill-opacity="0.35"/>
<circle cx="144.958" cy="46.9912" r="3.23508" fill="#25356A" fill-opacity="0.35"/>
<circle cx="155.741" cy="46.9912" r="3.23508" fill="#25356A" fill-opacity="0.35"/>
<circle cx="166.525" cy="46.9912" r="3.23508" fill="#25356A" fill-opacity="0.35"/>
<circle cx="188.092" cy="46.9912" r="3.23508" fill="#25356A" fill-opacity="0.35"/>
<circle cx="198.876" cy="46.9912" r="3.23508" fill="#25356A" fill-opacity="0.35"/>
<circle cx="209.659" cy="46.9912" r="3.23508" fill="#25356A" fill-opacity="0.35"/>
<circle cx="220.443" cy="46.9912" r="3.23508" fill="#25356A" fill-opacity="0.35"/>
<circle cx="231.227" cy="46.9912" r="3.23508" fill="#25356A" fill-opacity="0.35"/>
<circle cx="242.01" cy="46.9912" r="3.23508" fill="#25356A" fill-opacity="0.35"/>
<circle cx="252.794" cy="46.9912" r="3.23508" fill="#25356A" fill-opacity="0.35"/>
<circle cx="263.577" cy="46.9912" r="3.23508" fill="#25356A" fill-opacity="0.35"/>
<circle cx="37.1218" cy="57.7749" r="3.23508" fill="#25356A" fill-opacity="0.35"/>
<circle cx="47.9055" cy="57.7749" r="3.23508" fill="#25356A" fill-opacity="0.35"/>
<circle cx="58.6892" cy="57.7749" r="3.23508" fill="#25356A" fill-opacity="0.35"/>
<circle cx="69.4729" cy="57.7749" r="3.23508" fill="#25356A" fill-opacity="0.35"/>
<circle cx="80.2566" cy="57.7749" r="3.23508" fill="#25356A" fill-opacity="0.35"/>
<circle cx="91.0403" cy="57.7749" r="3.23508" fill="#25356A" fill-opacity="0.35"/>
<circle cx="101.823" cy="57.7749" r="3.23508" fill="#25356A" fill-opacity="0.35"/>
<circle cx="112.607" cy="57.7749" r="3.23508" fill="#25356A" fill-opacity="0.35"/>
<circle cx="123.39" cy="57.7749" r="3.23508" fill="#25356A" fill-opacity="0.35"/>
<circle cx="134.174" cy="57.7749" r="3.23508" fill="#25356A" fill-opacity="0.35"/>
<circle cx="144.958" cy="57.7749" r="3.23508" fill="#25356A" fill-opacity="0.35"/>
<circle cx="155.741" cy="57.7749" r="3.23508" fill="#25356A" fill-opacity="0.35"/>
<circle cx="166.525" cy="57.7749" r="3.23508" fill="#25356A" fill-opacity="0.35"/>
<circle cx="177.309" cy="57.7749" r="3.23508" fill="#25356A" fill-opacity="0.35"/>
<circle cx="188.092" cy="57.7749" r="3.23508" fill="#25356A" fill-opacity="0.35"/>
<circle cx="209.659" cy="57.7749" r="3.23508" fill="#25356A" fill-opacity="0.35"/>
<circle cx="220.443" cy="57.7749" r="3.23508" fill="#25356A" fill-opacity="0.35"/>
<circle cx="231.227" cy="57.7749" r="3.23508" fill="#25356A" fill-opacity="0.35"/>
<circle cx="242.01" cy="57.7749" r="3.23508" fill="#25356A" fill-opacity="0.35"/>
<circle cx="252.794" cy="57.7749" r="3.23508" fill="#25356A" fill-opacity="0.35"/>
<circle cx="263.577" cy="57.7749" r="3.23508" fill="#25356A" fill-opacity="0.35"/>
<circle cx="37.1218" cy="68.5585" r="3.23508" fill="#25356A" fill-opacity="0.35"/>
<circle cx="47.9055" cy="68.5585" r="3.23508" fill="#25356A" fill-opacity="0.35"/>
<circle cx="58.6892" cy="68.5585" r="3.23508" fill="#25356A" fill-opacity="0.35"/>
<circle cx="69.4729" cy="68.5585" r="3.23508" fill="#25356A" fill-opacity="0.35"/>
<circle cx="80.2566" cy="68.5585" r="3.23508" fill="#25356A" fill-opacity="0.35"/>
<circle cx="91.0403" cy="68.5585" r="3.23508" fill="#25356A" fill-opacity="0.35"/>
<circle cx="101.823" cy="68.5585" r="3.23508" fill="#25356A" fill-opacity="0.35"/>
<circle cx="112.607" cy="68.5585" r="3.23508" fill="#25356A" fill-opacity="0.35"/>
<circle cx="123.39" cy="68.5585" r="3.23508" fill="#25356A" fill-opacity="0.35"/>
<circle cx="134.174" cy="68.5585" r="3.23508" fill="#25356A" fill-opacity="0.35"/>
<circle cx="144.958" cy="68.5585" r="3.23508" fill="#25356A" fill-opacity="0.35"/>
<circle cx="155.741" cy="68.5585" r="3.23508" fill="#25356A" fill-opacity="0.35"/>
<circle cx="166.525" cy="68.5585" r="3.23508" fill="#25356A" fill-opacity="0.35"/>
<circle cx="177.309" cy="68.5585" r="3.23508" fill="#25356A" fill-opacity="0.35"/>
<circle cx="188.092" cy="68.5585" r="3.23508" fill="#25356A" fill-opacity="0.35"/>
<circle cx="198.876" cy="68.5585" r="3.23508" fill="#25356A" fill-opacity="0.35"/>
<circle cx="220.443" cy="68.5585" r="3.23508" fill="#25356A" fill-opacity="0.35"/>
<circle cx="231.227" cy="68.5585" r="3.23508" fill="#25356A" fill-opacity="0.35"/>
<circle cx="242.01" cy="68.5585" r="3.23508" fill="#25356A" fill-opacity="0.35"/>
<circle cx="252.794" cy="68.5585" r="3.23508" fill="#25356A" fill-opacity="0.35"/>
<circle cx="263.577" cy="68.5585" r="3.23508" fill="#25356A" fill-opacity="0.35"/>
<circle cx="37.1218" cy="79.3418" r="3.23508" fill="#25356A" fill-opacity="0.35"/>
<circle cx="47.9055" cy="79.3418" r="3.23508" fill="#25356A" fill-opacity="0.35"/>
<circle cx="58.6892" cy="79.3418" r="3.23508" fill="#25356A" fill-opacity="0.35"/>
<circle cx="69.4729" cy="79.3418" r="3.23508" fill="#25356A" fill-opacity="0.35"/>
<circle cx="80.2566" cy="79.3418" r="3.23508" fill="#25356A" fill-opacity="0.35"/>
<circle cx="91.0403" cy="79.3418" r="3.23508" fill="#25356A" fill-opacity="0.35"/>
<circle cx="101.823" cy="79.3418" r="3.23508" fill="#25356A" fill-opacity="0.35"/>
<circle cx="112.607" cy="79.3418" r="3.23508" fill="#25356A" fill-opacity="0.35"/>
<circle cx="123.39" cy="79.3418" r="3.23508" fill="#25356A" fill-opacity="0.35"/>
<circle cx="134.174" cy="79.3418" r="3.23508" fill="#25356A" fill-opacity="0.35"/>
<circle cx="144.958" cy="79.3418" r="3.23508" fill="#25356A" fill-opacity="0.35"/>
<circle cx="155.741" cy="79.3418" r="3.23508" fill="#25356A" fill-opacity="0.35"/>
<circle cx="166.525" cy="79.3418" r="3.23508" fill="#25356A" fill-opacity="0.35"/>
<circle cx="177.309" cy="79.3418" r="3.23508" fill="#25356A" fill-opacity="0.35"/>
<circle cx="188.092" cy="79.3419" r="3.23508" fill="#25356A" fill-opacity="0.35"/>
<circle cx="198.876" cy="79.3418" r="3.23508" fill="#25356A" fill-opacity="0.35"/>
<circle cx="209.659" cy="79.3418" r="3.23508" fill="#25356A" fill-opacity="0.35"/>
<circle cx="231.227" cy="79.3418" r="3.23508" fill="#25356A" fill-opacity="0.35"/>
<circle cx="242.01" cy="79.3418" r="3.23508" fill="#25356A" fill-opacity="0.35"/>
<circle cx="252.794" cy="79.3418" r="3.23508" fill="#25356A" fill-opacity="0.35"/>
<circle cx="263.577" cy="79.3418" r="3.23508" fill="#25356A" fill-opacity="0.35"/>
<circle cx="37.1218" cy="90.1255" r="3.23508" fill="#25356A" fill-opacity="0.35"/>
<circle cx="47.9055" cy="90.1255" r="3.23508" fill="#25356A" fill-opacity="0.35"/>
<circle cx="58.6892" cy="90.1255" r="3.23508" fill="#25356A" fill-opacity="0.35"/>
<circle cx="69.4729" cy="90.1255" r="3.23508" fill="#25356A" fill-opacity="0.35"/>
<circle cx="80.2566" cy="90.1255" r="3.23508" fill="#25356A" fill-opacity="0.35"/>
<circle cx="91.0403" cy="90.1255" r="3.23508" fill="#25356A" fill-opacity="0.35"/>
<circle cx="101.823" cy="90.1255" r="3.23508" fill="#25356A" fill-opacity="0.35"/>
<circle cx="112.607" cy="90.1255" r="3.23508" fill="#25356A" fill-opacity="0.35"/>
<circle cx="123.39" cy="90.1255" r="3.23508" fill="#25356A" fill-opacity="0.35"/>
<circle cx="134.174" cy="90.1255" r="3.23508" fill="#25356A" fill-opacity="0.35"/>
<circle cx="144.958" cy="90.1255" r="3.23508" fill="#25356A" fill-opacity="0.35"/>
<circle cx="155.741" cy="90.1255" r="3.23508" fill="#25356A" fill-opacity="0.35"/>
<circle cx="166.525" cy="90.1255" r="3.23508" fill="#25356A" fill-opacity="0.35"/>
<circle cx="177.309" cy="90.1255" r="3.23508" fill="#25356A" fill-opacity="0.35"/>
<circle cx="188.092" cy="90.1255" r="3.23508" fill="#25356A" fill-opacity="0.35"/>
<circle cx="198.876" cy="90.1255" r="3.23508" fill="#25356A" fill-opacity="0.35"/>
<circle cx="209.659" cy="90.1255" r="3.23508" fill="#25356A" fill-opacity="0.35"/>
<circle cx="220.443" cy="90.1255" r="3.23508" fill="#25356A" fill-opacity="0.35"/>
<circle cx="231.227" cy="90.1255" r="3.23508" fill="#25356A" fill-opacity="0.35"/>
<circle cx="252.794" cy="90.1255" r="3.23508" fill="#25356A" fill-opacity="0.35"/>
<circle cx="263.577" cy="90.1255" r="3.23508" fill="#25356A" fill-opacity="0.35"/>
<circle cx="37.1218" cy="100.909" r="3.23508" fill="#25356A" fill-opacity="0.35"/>
<circle cx="47.9055" cy="100.909" r="3.23508" fill="#25356A" fill-opacity="0.35"/>
<circle cx="58.6892" cy="100.909" r="3.23508" fill="#25356A" fill-opacity="0.35"/>
<circle cx="69.4729" cy="100.909" r="3.23508" fill="#25356A" fill-opacity="0.35"/>
<circle cx="80.2566" cy="100.909" r="3.23508" fill="#25356A" fill-opacity="0.35"/>
<circle cx="91.0403" cy="100.909" r="3.23508" fill="#25356A" fill-opacity="0.35"/>
<circle cx="101.823" cy="100.909" r="3.23508" fill="#25356A" fill-opacity="0.35"/>
<circle cx="112.607" cy="100.909" r="3.23508" fill="#25356A" fill-opacity="0.35"/>
<circle cx="123.39" cy="100.909" r="3.23508" fill="#25356A" fill-opacity="0.35"/>
<circle cx="134.174" cy="100.909" r="3.23508" fill="#25356A" fill-opacity="0.35"/>
<circle cx="144.958" cy="100.909" r="3.23508" fill="#25356A" fill-opacity="0.35"/>
<circle cx="155.741" cy="100.909" r="3.23508" fill="#25356A" fill-opacity="0.35"/>
<circle cx="166.525" cy="100.909" r="3.23508" fill="#25356A" fill-opacity="0.35"/>
<circle cx="177.309" cy="100.909" r="3.23508" fill="#25356A" fill-opacity="0.35"/>
<circle cx="188.092" cy="100.909" r="3.23508" fill="#25356A" fill-opacity="0.35"/>
<circle cx="198.876" cy="100.909" r="3.23508" fill="#25356A" fill-opacity="0.35"/>
<circle cx="209.659" cy="100.909" r="3.23508" fill="#25356A" fill-opacity="0.35"/>
<circle cx="220.443" cy="100.909" r="3.23508" fill="#25356A" fill-opacity="0.35"/>
<circle cx="231.227" cy="100.909" r="3.23508" fill="#25356A" fill-opacity="0.35"/>
<circle cx="242.01" cy="100.909" r="3.23508" fill="#25356A" fill-opacity="0.35"/>
<circle cx="263.577" cy="100.909" r="3.23508" fill="#25356A" fill-opacity="0.35"/>
<circle cx="37.1218" cy="111.693" r="3.23508" fill="#25356A" fill-opacity="0.35"/>
<circle cx="47.9055" cy="111.693" r="3.23508" fill="#25356A" fill-opacity="0.35"/>
<circle cx="58.6892" cy="111.693" r="3.23508" fill="#25356A" fill-opacity="0.35"/>
<circle cx="69.4729" cy="111.693" r="3.23508" fill="#25356A" fill-opacity="0.35"/>
<circle cx="80.2566" cy="111.693" r="3.23508" fill="#25356A" fill-opacity="0.35"/>
<circle cx="91.0403" cy="111.693" r="3.23508" fill="#25356A" fill-opacity="0.35"/>
<circle cx="101.823" cy="111.693" r="3.23508" fill="#25356A" fill-opacity="0.35"/>
<circle cx="112.607" cy="111.693" r="3.23508" fill="#25356A" fill-opacity="0.35"/>
<circle cx="123.39" cy="111.693" r="3.23508" fill="#25356A" fill-opacity="0.35"/>
<circle cx="134.174" cy="111.693" r="3.23508" fill="#25356A" fill-opacity="0.35"/>
<circle cx="144.958" cy="111.693" r="3.23508" fill="#25356A" fill-opacity="0.35"/>
<circle cx="155.741" cy="111.693" r="3.23508" fill="#25356A" fill-opacity="0.35"/>
<circle cx="166.525" cy="111.693" r="3.23508" fill="#25356A" fill-opacity="0.35"/>
<circle cx="177.309" cy="111.693" r="3.23508" fill="#25356A" fill-opacity="0.35"/>
<circle cx="188.092" cy="111.693" r="3.23508" fill="#25356A" fill-opacity="0.35"/>
<circle cx="198.876" cy="111.693" r="3.23508" fill="#25356A" fill-opacity="0.35"/>
<circle cx="209.659" cy="111.693" r="3.23508" fill="#25356A" fill-opacity="0.35"/>
<circle cx="220.443" cy="111.693" r="3.23508" fill="#25356A" fill-opacity="0.35"/>
<circle cx="231.227" cy="111.693" r="3.23508" fill="#25356A" fill-opacity="0.35"/>
<circle cx="242.01" cy="111.693" r="3.23508" fill="#25356A" fill-opacity="0.35"/>
<circle cx="252.794" cy="111.693" r="3.23508" fill="#25356A" fill-opacity="0.35"/>
<circle cx="263.577" cy="111.693" r="3.23508" fill="#25356A" fill-opacity="0.35"/>
<circle cx="37.1218" cy="122.476" r="3.23508" fill="#25356A" fill-opacity="0.35"/>
<circle cx="47.9055" cy="122.476" r="3.23508" fill="#25356A" fill-opacity="0.35"/>
<circle cx="58.6892" cy="122.476" r="3.23508" fill="#25356A" fill-opacity="0.35"/>
<circle cx="69.4729" cy="122.476" r="3.23508" fill="#25356A" fill-opacity="0.35"/>
<circle cx="80.2566" cy="122.476" r="3.23508" fill="#25356A" fill-opacity="0.35"/>
<circle cx="91.0403" cy="122.476" r="3.23508" fill="#25356A" fill-opacity="0.35"/>
<circle cx="101.823" cy="122.476" r="3.23508" fill="#25356A" fill-opacity="0.35"/>
<circle cx="112.607" cy="122.476" r="3.23508" fill="#25356A" fill-opacity="0.35"/>
<circle cx="123.39" cy="122.476" r="3.23508" fill="#25356A" fill-opacity="0.35"/>
<circle cx="134.174" cy="122.476" r="3.23508" fill="#25356A" fill-opacity="0.35"/>
<circle cx="144.958" cy="122.476" r="3.23508" fill="#25356A" fill-opacity="0.35"/>
<circle cx="155.741" cy="122.476" r="3.23508" fill="#25356A" fill-opacity="0.35"/>
<circle cx="166.525" cy="122.476" r="3.23508" fill="#25356A" fill-opacity="0.35"/>
<circle cx="177.309" cy="122.476" r="3.23508" fill="#25356A" fill-opacity="0.35"/>
<circle cx="188.092" cy="122.476" r="3.23508" fill="#25356A" fill-opacity="0.35"/>
<circle cx="198.876" cy="122.476" r="3.23508" fill="#25356A" fill-opacity="0.35"/>
<circle cx="209.659" cy="122.476" r="3.23508" fill="#25356A" fill-opacity="0.35"/>
<circle cx="220.443" cy="122.476" r="3.23508" fill="#25356A" fill-opacity="0.35"/>
<circle cx="231.227" cy="122.476" r="3.23508" fill="#25356A" fill-opacity="0.35"/>
<circle cx="242.01" cy="122.476" r="3.23508" fill="#25356A" fill-opacity="0.35"/>
<circle cx="252.794" cy="122.476" r="3.23508" fill="#25356A" fill-opacity="0.35"/>
<circle cx="37.1218" cy="133.26" r="3.23508" fill="#25356A" fill-opacity="0.35"/>
<circle cx="47.9055" cy="133.26" r="3.23508" fill="#25356A" fill-opacity="0.35"/>
<circle cx="58.6892" cy="133.26" r="3.23508" fill="#25356A" fill-opacity="0.35"/>
<circle cx="69.4729" cy="133.26" r="3.23508" fill="#25356A" fill-opacity="0.35"/>
<circle cx="80.2566" cy="133.26" r="3.23508" fill="#25356A" fill-opacity="0.35"/>
<circle cx="91.0403" cy="133.26" r="3.23508" fill="#25356A" fill-opacity="0.35"/>
<circle cx="101.823" cy="133.26" r="3.23508" fill="#25356A" fill-opacity="0.35"/>
<circle cx="112.607" cy="133.26" r="3.23508" fill="#25356A" fill-opacity="0.35"/>
<circle cx="123.39" cy="133.26" r="3.23508" fill="#25356A" fill-opacity="0.35"/>
<circle cx="134.174" cy="133.26" r="3.23508" fill="#25356A" fill-opacity="0.35"/>
<circle cx="144.958" cy="133.26" r="3.23508" fill="#25356A" fill-opacity="0.35"/>
<circle cx="155.741" cy="133.26" r="3.23508" fill="#25356A" fill-opacity="0.35"/>
<circle cx="166.525" cy="133.26" r="3.23508" fill="#25356A" fill-opacity="0.35"/>
<circle cx="177.309" cy="133.26" r="3.23508" fill="#25356A" fill-opacity="0.35"/>
<circle cx="188.092" cy="133.26" r="3.23508" fill="#25356A" fill-opacity="0.35"/>
<circle cx="198.876" cy="133.26" r="3.23508" fill="#25356A" fill-opacity="0.35"/>
<circle cx="209.659" cy="133.26" r="3.23508" fill="#25356A" fill-opacity="0.35"/>
<circle cx="220.443" cy="133.26" r="3.23508" fill="#25356A" fill-opacity="0.35"/>
<circle cx="231.227" cy="133.26" r="3.23508" fill="#25356A" fill-opacity="0.35"/>
<circle cx="242.01" cy="133.26" r="3.23508" fill="#25356A" fill-opacity="0.35"/>
<circle cx="252.794" cy="133.26" r="3.23508" fill="#25356A" fill-opacity="0.35"/>
<circle cx="37.1218" cy="144.043" r="3.23508" fill="#25356A" fill-opacity="0.35"/>
<circle cx="47.9055" cy="144.043" r="3.23508" fill="#25356A" fill-opacity="0.35"/>
<circle cx="58.6892" cy="144.043" r="3.23508" fill="#25356A" fill-opacity="0.35"/>
<circle cx="69.4729" cy="144.043" r="3.23508" fill="#25356A" fill-opacity="0.35"/>
<circle cx="80.2566" cy="144.043" r="3.23508" fill="#25356A" fill-opacity="0.35"/>
<circle cx="91.0403" cy="144.043" r="3.23508" fill="#25356A" fill-opacity="0.35"/>
<circle cx="101.823" cy="144.043" r="3.23508" fill="#25356A" fill-opacity="0.35"/>
<circle cx="112.607" cy="144.043" r="3.23508" fill="#25356A" fill-opacity="0.35"/>
<circle cx="123.39" cy="144.043" r="3.23508" fill="#25356A" fill-opacity="0.35"/>
<circle cx="134.174" cy="144.043" r="3.23508" fill="#25356A" fill-opacity="0.35"/>
<circle cx="144.958" cy="144.043" r="3.23508" fill="#25356A" fill-opacity="0.35"/>
<circle cx="155.741" cy="144.043" r="3.23508" fill="#25356A" fill-opacity="0.35"/>
<circle cx="166.525" cy="144.043" r="3.23508" fill="#25356A" fill-opacity="0.35"/>
<circle cx="177.309" cy="144.043" r="3.23508" fill="#25356A" fill-opacity="0.35"/>
<circle cx="188.092" cy="144.043" r="3.23508" fill="#25356A" fill-opacity="0.35"/>
<circle cx="198.876" cy="144.043" r="3.23508" fill="#25356A" fill-opacity="0.35"/>
<circle cx="209.659" cy="144.043" r="3.23508" fill="#25356A" fill-opacity="0.35"/>
<circle cx="220.443" cy="144.043" r="3.23508" fill="#25356A" fill-opacity="0.35"/>
<circle cx="231.227" cy="144.043" r="3.23508" fill="#25356A" fill-opacity="0.35"/>
<circle cx="242.01" cy="144.043" r="3.23508" fill="#25356A" fill-opacity="0.35"/>
<circle cx="252.794" cy="144.043" r="3.23508" fill="#25356A" fill-opacity="0.35"/>
<circle cx="263.577" cy="144.043" r="3.23508" fill="#25356A" fill-opacity="0.35"/>
<circle cx="37.1218" cy="154.827" r="3.23508" fill="#25356A" fill-opacity="0.35"/>
<circle cx="47.9055" cy="154.827" r="3.23508" fill="#25356A" fill-opacity="0.35"/>
<circle cx="58.6892" cy="154.827" r="3.23508" fill="#25356A" fill-opacity="0.35"/>
<circle cx="69.4729" cy="154.827" r="3.23508" fill="#25356A" fill-opacity="0.35"/>
<circle cx="80.2566" cy="154.827" r="3.23508" fill="#25356A" fill-opacity="0.35"/>
<circle cx="91.0403" cy="154.827" r="3.23508" fill="#25356A" fill-opacity="0.35"/>
<circle cx="101.823" cy="154.827" r="3.23508" fill="#25356A" fill-opacity="0.35"/>
<circle cx="112.607" cy="154.827" r="3.23508" fill="#25356A" fill-opacity="0.35"/>
<circle cx="123.39" cy="154.827" r="3.23508" fill="#25356A" fill-opacity="0.35"/>
<circle cx="134.174" cy="154.827" r="3.23508" fill="#25356A" fill-opacity="0.35"/>
<circle cx="144.958" cy="154.827" r="3.23508" fill="#25356A" fill-opacity="0.35"/>
<circle cx="155.741" cy="154.827" r="3.23508" fill="#25356A" fill-opacity="0.35"/>
<circle cx="166.525" cy="154.827" r="3.23508" fill="#25356A" fill-opacity="0.35"/>
<circle cx="177.309" cy="154.827" r="3.23508" fill="#25356A" fill-opacity="0.35"/>
<circle cx="188.092" cy="154.827" r="3.23508" fill="#25356A" fill-opacity="0.35"/>
<circle cx="198.876" cy="154.827" r="3.23508" fill="#25356A" fill-opacity="0.35"/>
<circle cx="209.659" cy="154.827" r="3.23508" fill="#25356A" fill-opacity="0.35"/>
<circle cx="220.443" cy="154.827" r="3.23508" fill="#25356A" fill-opacity="0.35"/>
<circle cx="231.227" cy="154.827" r="3.23508" fill="#25356A" fill-opacity="0.35"/>
<circle cx="242.01" cy="154.827" r="3.23508" fill="#25356A" fill-opacity="0.35"/>
<circle cx="252.794" cy="154.827" r="3.23508" fill="#25356A" fill-opacity="0.35"/>
<circle cx="37.1218" cy="165.611" r="3.23508" fill="#25356A" fill-opacity="0.35"/>
<circle cx="47.9055" cy="165.611" r="3.23508" fill="#25356A" fill-opacity="0.35"/>
<circle cx="58.6892" cy="165.611" r="3.23508" fill="#25356A" fill-opacity="0.35"/>
<circle cx="69.4729" cy="165.611" r="3.23508" fill="#25356A" fill-opacity="0.35"/>
<circle cx="80.2566" cy="165.611" r="3.23508" fill="#25356A" fill-opacity="0.35"/>
<circle cx="91.0403" cy="165.611" r="3.23508" fill="#25356A" fill-opacity="0.35"/>
<circle cx="101.823" cy="165.611" r="3.23508" fill="#25356A" fill-opacity="0.35"/>
<circle cx="112.607" cy="165.611" r="3.23508" fill="#25356A" fill-opacity="0.35"/>
<circle cx="123.39" cy="165.611" r="3.23508" fill="#25356A" fill-opacity="0.35"/>
<circle cx="134.174" cy="165.611" r="3.23508" fill="#25356A" fill-opacity="0.35"/>
<circle cx="144.958" cy="165.611" r="3.23508" fill="#25356A" fill-opacity="0.35"/>
<circle cx="155.741" cy="165.611" r="3.23508" fill="#25356A" fill-opacity="0.35"/>
<circle cx="166.525" cy="165.611" r="3.23508" fill="#25356A" fill-opacity="0.35"/>
<circle cx="177.309" cy="165.611" r="3.23508" fill="#25356A" fill-opacity="0.35"/>
<circle cx="188.092" cy="165.611" r="3.23508" fill="#25356A" fill-opacity="0.35"/>
<circle cx="198.876" cy="165.611" r="3.23508" fill="#25356A" fill-opacity="0.35"/>
<circle cx="209.659" cy="165.611" r="3.23508" fill="#25356A" fill-opacity="0.35"/>
<circle cx="220.443" cy="165.611" r="3.23508" fill="#25356A" fill-opacity="0.35"/>
<circle cx="231.227" cy="165.611" r="3.23508" fill="#25356A" fill-opacity="0.35"/>
<circle cx="242.01" cy="165.611" r="3.23508" fill="#25356A" fill-opacity="0.35"/>
<circle cx="252.794" cy="165.611" r="3.23508" fill="#25356A" fill-opacity="0.35"/>
<circle cx="37.1218" cy="176.394" r="3.23508" fill="#25356A" fill-opacity="0.35"/>
<circle cx="47.9055" cy="176.394" r="3.23508" fill="#25356A" fill-opacity="0.35"/>
<circle cx="58.6892" cy="176.394" r="3.23508" fill="#25356A" fill-opacity="0.35"/>
<circle cx="69.4729" cy="176.394" r="3.23508" fill="#25356A" fill-opacity="0.35"/>
<circle cx="80.2566" cy="176.394" r="3.23508" fill="#25356A" fill-opacity="0.35"/>
<circle cx="91.0403" cy="176.394" r="3.23508" fill="#25356A" fill-opacity="0.35"/>
<circle cx="101.823" cy="176.394" r="3.23508" fill="#25356A" fill-opacity="0.35"/>
<circle cx="112.607" cy="176.394" r="3.23508" fill="#25356A" fill-opacity="0.35"/>
<circle cx="123.39" cy="176.394" r="3.23508" fill="#25356A" fill-opacity="0.35"/>
<circle cx="134.174" cy="176.394" r="3.23508" fill="#25356A" fill-opacity="0.35"/>
<circle cx="144.958" cy="176.394" r="3.23508" fill="#25356A" fill-opacity="0.35"/>
<circle cx="155.741" cy="176.394" r="3.23508" fill="#25356A" fill-opacity="0.35"/>
<circle cx="166.525" cy="176.394" r="3.23508" fill="#25356A" fill-opacity="0.35"/>
<circle cx="177.309" cy="176.394" r="3.23508" fill="#25356A" fill-opacity="0.35"/>
<circle cx="188.092" cy="176.394" r="3.23508" fill="#25356A" fill-opacity="0.35"/>
<circle cx="198.876" cy="176.394" r="3.23508" fill="#25356A" fill-opacity="0.35"/>
<circle cx="209.659" cy="176.394" r="3.23508" fill="#25356A" fill-opacity="0.35"/>
<circle cx="220.443" cy="176.394" r="3.23508" fill="#25356A" fill-opacity="0.35"/>
<circle cx="231.227" cy="176.394" r="3.23508" fill="#25356A" fill-opacity="0.35"/>
<circle cx="242.01" cy="176.394" r="3.23508" fill="#25356A" fill-opacity="0.35"/>
<circle cx="252.794" cy="176.394" r="3.23508" fill="#25356A" fill-opacity="0.35"/>
<circle cx="263.577" cy="176.394" r="3.23508" fill="#25356A" fill-opacity="0.35"/>
<circle cx="37.1218" cy="187.178" r="3.23508" fill="#25356A" fill-opacity="0.35"/>
<circle cx="47.9055" cy="187.178" r="3.23508" fill="#25356A" fill-opacity="0.35"/>
<circle cx="58.6892" cy="187.178" r="3.23508" fill="#25356A" fill-opacity="0.35"/>
<circle cx="69.4729" cy="187.178" r="3.23508" fill="#25356A" fill-opacity="0.35"/>
<circle cx="80.2566" cy="187.178" r="3.23508" fill="#25356A" fill-opacity="0.35"/>
<circle cx="91.0403" cy="187.178" r="3.23508" fill="#25356A" fill-opacity="0.35"/>
<circle cx="101.823" cy="187.178" r="3.23508" fill="#25356A" fill-opacity="0.35"/>
<circle cx="112.607" cy="187.178" r="3.23508" fill="#25356A" fill-opacity="0.35"/>
<circle cx="123.39" cy="187.178" r="3.23508" fill="#25356A" fill-opacity="0.35"/>
<circle cx="134.174" cy="187.178" r="3.23508" fill="#25356A" fill-opacity="0.35"/>
<circle cx="144.958" cy="187.178" r="3.23508" fill="#25356A" fill-opacity="0.35"/>
<circle cx="155.741" cy="187.178" r="3.23508" fill="#25356A" fill-opacity="0.35"/>
<circle cx="166.525" cy="187.178" r="3.23508" fill="#25356A" fill-opacity="0.35"/>
<circle cx="177.309" cy="187.178" r="3.23508" fill="#25356A" fill-opacity="0.35"/>
<circle cx="188.092" cy="187.178" r="3.23508" fill="#25356A" fill-opacity="0.35"/>
<circle cx="198.876" cy="187.178" r="3.23508" fill="#25356A" fill-opacity="0.35"/>
<circle cx="209.659" cy="187.178" r="3.23508" fill="#25356A" fill-opacity="0.35"/>
<circle cx="220.443" cy="187.178" r="3.23508" fill="#25356A" fill-opacity="0.35"/>
<circle cx="231.227" cy="187.178" r="3.23508" fill="#25356A" fill-opacity="0.35"/>
<circle cx="242.01" cy="187.178" r="3.23508" fill="#25356A" fill-opacity="0.35"/>
<circle cx="252.794" cy="187.178" r="3.23508" fill="#25356A" fill-opacity="0.35"/>
<circle cx="263.577" cy="187.178" r="3.23508" fill="#25356A" fill-opacity="0.35"/>
<circle cx="37.1218" cy="197.962" r="3.23508" fill="#25356A" fill-opacity="0.35"/>
<circle cx="47.9055" cy="197.962" r="3.23508" fill="#25356A" fill-opacity="0.35"/>
<circle cx="58.6892" cy="197.962" r="3.23508" fill="#25356A" fill-opacity="0.35"/>
<circle cx="69.4729" cy="197.962" r="3.23508" fill="#25356A" fill-opacity="0.35"/>
<circle cx="80.2566" cy="197.962" r="3.23508" fill="#25356A" fill-opacity="0.35"/>
<circle cx="91.0403" cy="197.962" r="3.23508" fill="#25356A" fill-opacity="0.35"/>
<circle cx="101.823" cy="197.962" r="3.23508" fill="#25356A" fill-opacity="0.35"/>
<circle cx="112.607" cy="197.962" r="3.23508" fill="#25356A" fill-opacity="0.35"/>
<circle cx="123.39" cy="197.962" r="3.23508" fill="#25356A" fill-opacity="0.35"/>
<circle cx="134.174" cy="197.962" r="3.23508" fill="#25356A" fill-opacity="0.35"/>
<circle cx="144.958" cy="197.962" r="3.23508" fill="#25356A" fill-opacity="0.35"/>
<circle cx="155.741" cy="197.962" r="3.23508" fill="#25356A" fill-opacity="0.35"/>
<circle cx="166.525" cy="197.962" r="3.23508" fill="#25356A" fill-opacity="0.35"/>
<circle cx="177.309" cy="197.962" r="3.23508" fill="#25356A" fill-opacity="0.35"/>
<circle cx="188.092" cy="197.962" r="3.23508" fill="#25356A" fill-opacity="0.35"/>
<circle cx="198.876" cy="197.962" r="3.23508" fill="#25356A" fill-opacity="0.35"/>
<circle cx="209.659" cy="197.962" r="3.23508" fill="#25356A" fill-opacity="0.35"/>
<circle cx="220.443" cy="197.962" r="3.23508" fill="#25356A" fill-opacity="0.35"/>
<circle cx="231.227" cy="197.962" r="3.23508" fill="#25356A" fill-opacity="0.35"/>
<circle cx="242.01" cy="197.962" r="3.23508" fill="#25356A" fill-opacity="0.35"/>
<circle cx="252.794" cy="197.962" r="3.23508" fill="#25356A" fill-opacity="0.35"/>
<circle cx="263.577" cy="197.962" r="3.23508" fill="#25356A" fill-opacity="0.35"/>
<circle cx="37.1218" cy="208.745" r="3.23508" fill="#25356A" fill-opacity="0.35"/>
<circle cx="47.9055" cy="208.745" r="3.23508" fill="#25356A" fill-opacity="0.35"/>
<circle cx="58.6892" cy="208.745" r="3.23508" fill="#25356A" fill-opacity="0.35"/>
<circle cx="69.4729" cy="208.745" r="3.23508" fill="#25356A" fill-opacity="0.35"/>
<circle cx="80.2566" cy="208.745" r="3.23508" fill="#25356A" fill-opacity="0.35"/>
<circle cx="91.0403" cy="208.745" r="3.23508" fill="#25356A" fill-opacity="0.35"/>
<circle cx="101.823" cy="208.745" r="3.23508" fill="#25356A" fill-opacity="0.35"/>
<circle cx="112.607" cy="208.745" r="3.23508" fill="#25356A" fill-opacity="0.35"/>
<circle cx="123.39" cy="208.745" r="3.23508" fill="#25356A" fill-opacity="0.35"/>
<circle cx="134.174" cy="208.745" r="3.23508" fill="#25356A" fill-opacity="0.35"/>
<circle cx="144.958" cy="208.745" r="3.23508" fill="#25356A" fill-opacity="0.35"/>
<circle cx="155.741" cy="208.745" r="3.23508" fill="#25356A" fill-opacity="0.35"/>
<circle cx="166.525" cy="208.745" r="3.23508" fill="#25356A" fill-opacity="0.35"/>
<circle cx="177.309" cy="208.745" r="3.23508" fill="#25356A" fill-opacity="0.35"/>
<circle cx="188.092" cy="208.745" r="3.23508" fill="#25356A" fill-opacity="0.35"/>
<circle cx="198.876" cy="208.745" r="3.23508" fill="#25356A" fill-opacity="0.35"/>
<circle cx="209.659" cy="208.745" r="3.23508" fill="#25356A" fill-opacity="0.35"/>
<circle cx="220.443" cy="208.745" r="3.23508" fill="#25356A" fill-opacity="0.35"/>
<circle cx="231.227" cy="208.745" r="3.23508" fill="#25356A" fill-opacity="0.35"/>
<circle cx="242.01" cy="208.745" r="3.23508" fill="#25356A" fill-opacity="0.35"/>
<circle cx="252.794" cy="208.745" r="3.23508" fill="#25356A" fill-opacity="0.35"/>
<circle cx="263.577" cy="208.745" r="3.23508" fill="#25356A" fill-opacity="0.35"/>
<circle cx="37.1218" cy="219.529" r="3.23508" fill="#25356A" fill-opacity="0.35"/>
<circle cx="47.9055" cy="219.529" r="3.23508" fill="#25356A" fill-opacity="0.35"/>
<circle cx="58.6892" cy="219.529" r="3.23508" fill="#25356A" fill-opacity="0.35"/>
<circle cx="69.4729" cy="219.529" r="3.23508" fill="#25356A" fill-opacity="0.35"/>
<circle cx="80.2566" cy="219.529" r="3.23508" fill="#25356A" fill-opacity="0.35"/>
<circle cx="91.0403" cy="219.529" r="3.23508" fill="#25356A" fill-opacity="0.35"/>
<circle cx="101.823" cy="219.529" r="3.23508" fill="#25356A" fill-opacity="0.35"/>
<circle cx="112.607" cy="219.529" r="3.23508" fill="#25356A" fill-opacity="0.35"/>
<circle cx="123.39" cy="219.529" r="3.23508" fill="#25356A" fill-opacity="0.35"/>
<circle cx="134.174" cy="219.529" r="3.23508" fill="#25356A" fill-opacity="0.35"/>
<circle cx="144.958" cy="219.529" r="3.23508" fill="#25356A" fill-opacity="0.35"/>
<circle cx="155.741" cy="219.529" r="3.23508" fill="#25356A" fill-opacity="0.35"/>
<circle cx="166.525" cy="219.529" r="3.23508" fill="#25356A" fill-opacity="0.35"/>
<circle cx="177.309" cy="219.529" r="3.23508" fill="#25356A" fill-opacity="0.35"/>
<circle cx="188.092" cy="219.529" r="3.23508" fill="#25356A" fill-opacity="0.35"/>
<circle cx="198.876" cy="219.529" r="3.23508" fill="#25356A" fill-opacity="0.35"/>
<circle cx="209.659" cy="219.529" r="3.23508" fill="#25356A" fill-opacity="0.35"/>
<circle cx="220.443" cy="219.529" r="3.23508" fill="#25356A" fill-opacity="0.35"/>
<circle cx="231.227" cy="219.529" r="3.23508" fill="#25356A" fill-opacity="0.35"/>
<circle cx="242.01" cy="219.529" r="3.23508" fill="#25356A" fill-opacity="0.35"/>
<circle cx="252.794" cy="219.529" r="3.23508" fill="#25356A" fill-opacity="0.35"/>
<circle cx="263.577" cy="219.529" r="3.23508" fill="#25356A" fill-opacity="0.35"/>
<circle cx="37.1218" cy="230.312" r="3.23508" fill="#25356A" fill-opacity="0.35"/>
<circle cx="47.9055" cy="230.312" r="3.23508" fill="#25356A" fill-opacity="0.35"/>
<circle cx="58.6892" cy="230.312" r="3.23508" fill="#25356A" fill-opacity="0.35"/>
<circle cx="69.4729" cy="230.312" r="3.23508" fill="#25356A" fill-opacity="0.35"/>
<circle cx="80.2566" cy="230.312" r="3.23508" fill="#25356A" fill-opacity="0.35"/>
<circle cx="91.0403" cy="230.312" r="3.23508" fill="#25356A" fill-opacity="0.35"/>
<circle cx="101.823" cy="230.312" r="3.23508" fill="#25356A" fill-opacity="0.35"/>
<circle cx="112.607" cy="230.312" r="3.23508" fill="#25356A" fill-opacity="0.35"/>
<circle cx="123.39" cy="230.312" r="3.23508" fill="#25356A" fill-opacity="0.35"/>
<circle cx="134.174" cy="230.312" r="3.23508" fill="#25356A" fill-opacity="0.35"/>
<circle cx="144.958" cy="230.312" r="3.23508" fill="#25356A" fill-opacity="0.35"/>
<circle cx="155.741" cy="230.312" r="3.23508" fill="#25356A" fill-opacity="0.35"/>
<circle cx="166.525" cy="230.312" r="3.23508" fill="#25356A" fill-opacity="0.35"/>
<circle cx="177.309" cy="230.312" r="3.23508" fill="#25356A" fill-opacity="0.35"/>
<circle cx="188.092" cy="230.312" r="3.23508" fill="#25356A" fill-opacity="0.35"/>
<circle cx="198.876" cy="230.312" r="3.23508" fill="#25356A" fill-opacity="0.35"/>
<circle cx="209.659" cy="230.312" r="3.23508" fill="#25356A" fill-opacity="0.35"/>
<circle cx="220.443" cy="230.312" r="3.23508" fill="#25356A" fill-opacity="0.35"/>
<circle cx="231.227" cy="230.312" r="3.23508" fill="#25356A" fill-opacity="0.35"/>
<circle cx="242.01" cy="230.312" r="3.23508" fill="#25356A" fill-opacity="0.35"/>
<circle cx="252.794" cy="230.312" r="3.23508" fill="#25356A" fill-opacity="0.35"/>
<circle cx="263.577" cy="230.312" r="3.23508" fill="#25356A" fill-opacity="0.35"/>
<circle cx="37.1218" cy="241.096" r="3.23508" fill="#25356A" fill-opacity="0.35"/>
<circle cx="47.9055" cy="241.096" r="3.23508" fill="#25356A" fill-opacity="0.35"/>
<circle cx="58.6892" cy="241.096" r="3.23508" fill="#25356A" fill-opacity="0.35"/>
<circle cx="69.4729" cy="241.096" r="3.23508" fill="#25356A" fill-opacity="0.35"/>
<circle cx="80.2566" cy="241.096" r="3.23508" fill="#25356A" fill-opacity="0.35"/>
<circle cx="91.0403" cy="241.096" r="3.23508" fill="#25356A" fill-opacity="0.35"/>
<circle cx="101.823" cy="241.096" r="3.23508" fill="#25356A" fill-opacity="0.35"/>
<circle cx="112.607" cy="241.096" r="3.23508" fill="#25356A" fill-opacity="0.35"/>
<circle cx="123.39" cy="241.096" r="3.23508" fill="#25356A" fill-opacity="0.35"/>
<circle cx="134.174" cy="241.096" r="3.23508" fill="#25356A" fill-opacity="0.35"/>
<circle cx="144.958" cy="241.096" r="3.23508" fill="#25356A" fill-opacity="0.35"/>
<circle cx="155.741" cy="241.096" r="3.23508" fill="#25356A" fill-opacity="0.35"/>
<circle cx="166.525" cy="241.096" r="3.23508" fill="#25356A" fill-opacity="0.35"/>
<circle cx="177.309" cy="241.096" r="3.23508" fill="#25356A" fill-opacity="0.35"/>
<circle cx="188.092" cy="241.096" r="3.23508" fill="#25356A" fill-opacity="0.35"/>
<circle cx="198.876" cy="241.096" r="3.23508" fill="#25356A" fill-opacity="0.35"/>
<circle cx="209.659" cy="241.096" r="3.23508" fill="#25356A" fill-opacity="0.35"/>
<circle cx="220.443" cy="241.096" r="3.23508" fill="#25356A" fill-opacity="0.35"/>
<circle cx="231.227" cy="241.096" r="3.23508" fill="#25356A" fill-opacity="0.35"/>
<circle cx="242.01" cy="241.096" r="3.23508" fill="#25356A" fill-opacity="0.35"/>
<circle cx="252.794" cy="241.096" r="3.23508" fill="#25356A" fill-opacity="0.35"/>
<circle cx="263.577" cy="241.096" r="3.23508" fill="#25356A" fill-opacity="0.35"/>
<circle cx="37.1218" cy="251.88" r="3.23508" fill="#25356A" fill-opacity="0.35"/>
<circle cx="47.9055" cy="251.88" r="3.23508" fill="#25356A" fill-opacity="0.35"/>
<circle cx="58.6892" cy="251.88" r="3.23508" fill="#25356A" fill-opacity="0.35"/>
<circle cx="69.4729" cy="251.88" r="3.23508" fill="#25356A" fill-opacity="0.35"/>
<circle cx="80.2566" cy="251.88" r="3.23508" fill="#25356A" fill-opacity="0.35"/>
<circle cx="91.0403" cy="251.88" r="3.23508" fill="#25356A" fill-opacity="0.35"/>
<circle cx="101.823" cy="251.88" r="3.23508" fill="#25356A" fill-opacity="0.35"/>
<circle cx="112.607" cy="251.88" r="3.23508" fill="#25356A" fill-opacity="0.35"/>
<circle cx="123.39" cy="251.88" r="3.23508" fill="#25356A" fill-opacity="0.35"/>
<circle cx="134.174" cy="251.88" r="3.23508" fill="#25356A" fill-opacity="0.35"/>
<circle cx="144.958" cy="251.88" r="3.23508" fill="#25356A" fill-opacity="0.35"/>
<circle cx="155.741" cy="251.88" r="3.23508" fill="#25356A" fill-opacity="0.35"/>
<circle cx="166.525" cy="251.88" r="3.23508" fill="#25356A" fill-opacity="0.35"/>
<circle cx="177.309" cy="251.88" r="3.23508" fill="#25356A" fill-opacity="0.35"/>
<circle cx="188.092" cy="251.88" r="3.23508" fill="#25356A" fill-opacity="0.35"/>
<circle cx="198.876" cy="251.88" r="3.23508" fill="#25356A" fill-opacity="0.35"/>
<circle cx="209.659" cy="251.88" r="3.23508" fill="#25356A" fill-opacity="0.35"/>
<circle cx="220.443" cy="251.88" r="3.23508" fill="#25356A" fill-opacity="0.35"/>
<circle cx="231.227" cy="251.88" r="3.23508" fill="#25356A" fill-opacity="0.35"/>
<circle cx="242.01" cy="251.88" r="3.23508" fill="#25356A" fill-opacity="0.35"/>
<circle cx="252.794" cy="251.88" r="3.23508" fill="#25356A" fill-opacity="0.35"/>
<circle cx="263.577" cy="251.88" r="3.23508" fill="#25356A" fill-opacity="0.35"/>
</g>
<g opacity="0.91" filter="url(#filter1_d_304_129)">
<path d="M238.871 125.709C83.9944 -9.98069 28.2917 63.9753 23.3646 71.282C23.0952 71.6815 23.0027 72.0987 23.0071 72.5806L24.2237 203.45C25.1104 298.834 105.049 381.319 192.37 342.93C237.164 323.237 278.15 291.185 295.993 239.068C321.118 165.681 251.413 136.697 238.871 125.709Z" fill="#D4E5F7" fill-opacity="0.39"/>
</g>
<defs>
<filter id="filter0_d_304_129" x="12.8229" y="21.6916" width="350.354" height="379.878" filterUnits="userSpaceOnUse" color-interpolation-filters="sRGB">
<feFlood flood-opacity="0" result="BackgroundImageFix"/>
<feColorMatrix in="SourceAlpha" type="matrix" values="0 0 0 0 0 0 0 0 0 0 0 0 0 0 0 0 0 0 127 0" result="hardAlpha"/>
<feOffset dx="13.0342" dy="13.0342"/>
<feGaussianBlur stdDeviation="17.9873"/>
<feColorMatrix type="matrix" values="0 0 0 0 0 0 0 0 0 0 0 0 0 0 0 0 0 0 0.04 0"/>
<feBlend mode="normal" in2="BackgroundImageFix" result="effect1_dropShadow_304_129"/>
<feBlend mode="normal" in="SourceGraphic" in2="effect1_dropShadow_304_129" result="shape"/>
</filter>
<filter id="filter1_d_304_129" x="0.0665674" y="21.6916" width="350.354" height="379.878" filterUnits="userSpaceOnUse" color-interpolation-filters="sRGB">
<feFlood flood-opacity="0" result="BackgroundImageFix"/>
<feColorMatrix in="SourceAlpha" type="matrix" values="0 0 0 0 0 0 0 0 0 0 0 0 0 0 0 0 0 0 127 0" result="hardAlpha"/>
<feOffset dx="13.0342" dy="13.0342"/>
<feGaussianBlur stdDeviation="17.9873"/>
<feColorMatrix type="matrix" values="0 0 0 0 0 0 0 0 0 0 0 0 0 0 0 0 0 0 0.04 0"/>
<feBlend mode="normal" in2="BackgroundImageFix" result="effect1_dropShadow_304_129"/>
<feBlend mode="normal" in="SourceGraphic" in2="effect1_dropShadow_304_129" result="shape"/>
</filter>
</defs>
</svg>
