<svg width="392" height="857" viewBox="0 0 392 857" fill="none" xmlns="http://www.w3.org/2000/svg">
<g opacity="0.05">
<path opacity="0.91" d="M271.975 144.514C-28.2885 -118.607 -134.172 29.2623 -141.577 40.5321C-141.887 41.0041 -141.997 41.4941 -141.992 42.0588L-138.471 420.887C-137.432 532.703 -47.2856 624.367 61.8464 599.995C185.921 572.286 331.375 508.444 381.519 361.949C429.701 221.186 296.026 165.591 271.975 144.514Z" fill="#D4E5F7"/>
</g>
<g opacity="0.91" filter="url(#filter0_d_203_219)">
<path d="M140.322 581.628C62.9397 513.832 10.4588 498.524 -23.1954 500.948C-56.8268 503.37 -71.8307 523.514 -74.2345 527.078L-74.7633 526.722L-74.2345 527.078C-74.4151 527.346 -74.4866 527.628 -74.483 528.014L-73.2664 658.884C-72.8246 706.409 -52.6868 750.701 -21.8187 778.319C9.03114 805.921 50.5838 816.867 93.9859 797.786C138.684 778.135 179.497 746.191 197.262 694.301C203.508 676.057 203.85 660.61 200.683 647.531C197.516 634.447 190.828 623.692 182.953 614.853C175.075 606.012 166.019 599.099 158.132 593.703C155.042 591.589 152.138 589.712 149.551 588.04C148.836 587.577 148.145 587.131 147.481 586.699C144.433 584.718 141.931 583.038 140.322 581.628Z" stroke="#4F4F4F" stroke-width="1.27565"/>
</g>
<mask id="mask0_203_219" style="mask-type:alpha" maskUnits="userSpaceOnUse" x="-76" y="462" width="232" height="249">
<path opacity="0.69" d="M103.899 529.611C-23.7916 417.853 -70.1954 477.754 -74.7493 484.407C-75.0217 484.805 -75.1252 485.24 -75.1207 485.722L-74.3853 564.749C-73.4977 660.135 10.0886 746.384 91.1365 696.081C117.593 679.66 140.001 656.416 151.272 623.527C172.109 562.727 114.3 538.714 103.899 529.611Z" fill="#25356A" fill-opacity="0.35"/>
</mask>
<g mask="url(#mask0_203_219)">
<circle cx="1.72238" cy="459.297" r="3.23508" fill="#25356A" fill-opacity="0.35"/>
<circle cx="12.5061" cy="459.297" r="3.23508" fill="#25356A" fill-opacity="0.35"/>
<circle cx="23.2898" cy="459.297" r="3.23508" fill="#25356A" fill-opacity="0.35"/>
<circle cx="34.0735" cy="459.297" r="3.23508" fill="#25356A" fill-opacity="0.35"/>
<circle cx="44.8571" cy="459.297" r="3.23508" fill="#25356A" fill-opacity="0.35"/>
<circle cx="55.6408" cy="459.297" r="3.23508" fill="#25356A" fill-opacity="0.35"/>
<circle cx="66.4245" cy="459.297" r="3.23508" fill="#25356A" fill-opacity="0.35"/>
<circle cx="77.2077" cy="459.297" r="3.23508" fill="#25356A" fill-opacity="0.35"/>
<circle cx="87.9914" cy="459.297" r="3.23508" fill="#25356A" fill-opacity="0.35"/>
<circle cx="98.7751" cy="459.297" r="3.23508" fill="#25356A" fill-opacity="0.35"/>
<circle cx="109.559" cy="459.297" r="3.23508" fill="#25356A" fill-opacity="0.35"/>
<circle cx="120.342" cy="459.297" r="3.23508" fill="#25356A" fill-opacity="0.35"/>
<circle cx="131.126" cy="459.297" r="3.23508" fill="#25356A" fill-opacity="0.35"/>
<circle cx="141.91" cy="459.297" r="3.23508" fill="#25356A" fill-opacity="0.35"/>
<circle cx="152.693" cy="459.297" r="3.23508" fill="#25356A" fill-opacity="0.35"/>
<circle cx="23.2898" cy="470.08" r="3.23508" fill="#25356A" fill-opacity="0.35"/>
<circle cx="34.0735" cy="470.08" r="3.23508" fill="#25356A" fill-opacity="0.35"/>
<circle cx="44.8571" cy="470.08" r="3.23508" fill="#25356A" fill-opacity="0.35"/>
<circle cx="55.6408" cy="470.08" r="3.23508" fill="#25356A" fill-opacity="0.35"/>
<circle cx="66.4245" cy="470.08" r="3.23508" fill="#25356A" fill-opacity="0.35"/>
<circle cx="77.2077" cy="470.08" r="3.23508" fill="#25356A" fill-opacity="0.35"/>
<circle cx="87.9914" cy="470.08" r="3.23508" fill="#25356A" fill-opacity="0.35"/>
<circle cx="98.7751" cy="470.08" r="3.23508" fill="#25356A" fill-opacity="0.35"/>
<circle cx="109.559" cy="470.08" r="3.23508" fill="#25356A" fill-opacity="0.35"/>
<circle cx="120.342" cy="470.08" r="3.23508" fill="#25356A" fill-opacity="0.35"/>
<circle cx="131.126" cy="470.08" r="3.23508" fill="#25356A" fill-opacity="0.35"/>
<circle cx="141.91" cy="470.08" r="3.23508" fill="#25356A" fill-opacity="0.35"/>
<circle cx="152.693" cy="470.08" r="3.23508" fill="#25356A" fill-opacity="0.35"/>
<circle cx="1.72238" cy="480.864" r="3.23508" fill="#25356A" fill-opacity="0.35"/>
<circle cx="12.5061" cy="480.864" r="3.23508" fill="#25356A" fill-opacity="0.35"/>
<circle cx="23.2898" cy="480.864" r="3.23508" fill="#25356A" fill-opacity="0.35"/>
<circle cx="44.8571" cy="480.864" r="3.23508" fill="#25356A" fill-opacity="0.35"/>
<circle cx="55.6408" cy="480.864" r="3.23508" fill="#25356A" fill-opacity="0.35"/>
<circle cx="66.4245" cy="480.864" r="3.23508" fill="#25356A" fill-opacity="0.35"/>
<circle cx="77.2077" cy="480.864" r="3.23508" fill="#25356A" fill-opacity="0.35"/>
<circle cx="87.9914" cy="480.864" r="3.23508" fill="#25356A" fill-opacity="0.35"/>
<circle cx="98.7751" cy="480.864" r="3.23508" fill="#25356A" fill-opacity="0.35"/>
<circle cx="109.559" cy="480.864" r="3.23508" fill="#25356A" fill-opacity="0.35"/>
<circle cx="120.342" cy="480.864" r="3.23508" fill="#25356A" fill-opacity="0.35"/>
<circle cx="131.126" cy="480.864" r="3.23508" fill="#25356A" fill-opacity="0.35"/>
<circle cx="141.91" cy="480.864" r="3.23508" fill="#25356A" fill-opacity="0.35"/>
<circle cx="152.693" cy="480.864" r="3.23508" fill="#25356A" fill-opacity="0.35"/>
<circle cx="1.72238" cy="491.648" r="3.23508" fill="#25356A" fill-opacity="0.35"/>
<circle cx="12.5061" cy="491.648" r="3.23508" fill="#25356A" fill-opacity="0.35"/>
<circle cx="23.2898" cy="491.648" r="3.23508" fill="#25356A" fill-opacity="0.35"/>
<circle cx="34.0735" cy="491.648" r="3.23508" fill="#25356A" fill-opacity="0.35"/>
<circle cx="44.8571" cy="491.648" r="3.23508" fill="#25356A" fill-opacity="0.35"/>
<circle cx="66.4245" cy="491.648" r="3.23508" fill="#25356A" fill-opacity="0.35"/>
<circle cx="77.2077" cy="491.648" r="3.23508" fill="#25356A" fill-opacity="0.35"/>
<circle cx="87.9914" cy="491.648" r="3.23508" fill="#25356A" fill-opacity="0.35"/>
<circle cx="98.7751" cy="491.648" r="3.23508" fill="#25356A" fill-opacity="0.35"/>
<circle cx="109.559" cy="491.648" r="3.23508" fill="#25356A" fill-opacity="0.35"/>
<circle cx="120.342" cy="491.648" r="3.23508" fill="#25356A" fill-opacity="0.35"/>
<circle cx="131.126" cy="491.648" r="3.23508" fill="#25356A" fill-opacity="0.35"/>
<circle cx="141.91" cy="491.648" r="3.23508" fill="#25356A" fill-opacity="0.35"/>
<circle cx="152.693" cy="491.648" r="3.23508" fill="#25356A" fill-opacity="0.35"/>
<circle cx="1.72238" cy="502.431" r="3.23508" fill="#25356A" fill-opacity="0.35"/>
<circle cx="12.5061" cy="502.431" r="3.23508" fill="#25356A" fill-opacity="0.35"/>
<circle cx="23.2898" cy="502.431" r="3.23508" fill="#25356A" fill-opacity="0.35"/>
<circle cx="34.0735" cy="502.431" r="3.23508" fill="#25356A" fill-opacity="0.35"/>
<circle cx="44.8571" cy="502.431" r="3.23508" fill="#25356A" fill-opacity="0.35"/>
<circle cx="55.6408" cy="502.431" r="3.23508" fill="#25356A" fill-opacity="0.35"/>
<circle cx="77.2077" cy="502.431" r="3.23508" fill="#25356A" fill-opacity="0.35"/>
<circle cx="87.9914" cy="502.431" r="3.23508" fill="#25356A" fill-opacity="0.35"/>
<circle cx="98.7751" cy="502.431" r="3.23508" fill="#25356A" fill-opacity="0.35"/>
<circle cx="109.559" cy="502.431" r="3.23508" fill="#25356A" fill-opacity="0.35"/>
<circle cx="120.342" cy="502.431" r="3.23508" fill="#25356A" fill-opacity="0.35"/>
<circle cx="131.126" cy="502.431" r="3.23508" fill="#25356A" fill-opacity="0.35"/>
<circle cx="141.91" cy="502.431" r="3.23508" fill="#25356A" fill-opacity="0.35"/>
<circle cx="152.693" cy="502.431" r="3.23508" fill="#25356A" fill-opacity="0.35"/>
<circle cx="1.72238" cy="513.215" r="3.23508" fill="#25356A" fill-opacity="0.35"/>
<circle cx="12.5061" cy="513.215" r="3.23508" fill="#25356A" fill-opacity="0.35"/>
<circle cx="23.2898" cy="513.215" r="3.23508" fill="#25356A" fill-opacity="0.35"/>
<circle cx="34.0735" cy="513.215" r="3.23508" fill="#25356A" fill-opacity="0.35"/>
<circle cx="44.8571" cy="513.215" r="3.23508" fill="#25356A" fill-opacity="0.35"/>
<circle cx="55.6408" cy="513.215" r="3.23508" fill="#25356A" fill-opacity="0.35"/>
<circle cx="66.4245" cy="513.215" r="3.23508" fill="#25356A" fill-opacity="0.35"/>
<circle cx="77.2077" cy="513.215" r="3.23508" fill="#25356A" fill-opacity="0.35"/>
<circle cx="98.7751" cy="513.215" r="3.23508" fill="#25356A" fill-opacity="0.35"/>
<circle cx="109.559" cy="513.215" r="3.23508" fill="#25356A" fill-opacity="0.35"/>
<circle cx="120.342" cy="513.215" r="3.23508" fill="#25356A" fill-opacity="0.35"/>
<circle cx="131.126" cy="513.215" r="3.23508" fill="#25356A" fill-opacity="0.35"/>
<circle cx="141.91" cy="513.215" r="3.23508" fill="#25356A" fill-opacity="0.35"/>
<circle cx="152.693" cy="513.215" r="3.23508" fill="#25356A" fill-opacity="0.35"/>
<circle cx="1.72238" cy="523.998" r="3.23508" fill="#25356A" fill-opacity="0.35"/>
<circle cx="12.5061" cy="523.998" r="3.23508" fill="#25356A" fill-opacity="0.35"/>
<circle cx="23.2898" cy="523.998" r="3.23508" fill="#25356A" fill-opacity="0.35"/>
<circle cx="34.0735" cy="523.998" r="3.23508" fill="#25356A" fill-opacity="0.35"/>
<circle cx="44.8571" cy="523.998" r="3.23508" fill="#25356A" fill-opacity="0.35"/>
<circle cx="55.6408" cy="523.998" r="3.23508" fill="#25356A" fill-opacity="0.35"/>
<circle cx="66.4245" cy="523.998" r="3.23508" fill="#25356A" fill-opacity="0.35"/>
<circle cx="77.2077" cy="523.998" r="3.23508" fill="#25356A" fill-opacity="0.35"/>
<circle cx="87.9914" cy="523.998" r="3.23508" fill="#25356A" fill-opacity="0.35"/>
<circle cx="109.559" cy="523.998" r="3.23508" fill="#25356A" fill-opacity="0.35"/>
<circle cx="120.342" cy="523.998" r="3.23508" fill="#25356A" fill-opacity="0.35"/>
<circle cx="131.126" cy="523.998" r="3.23508" fill="#25356A" fill-opacity="0.35"/>
<circle cx="141.91" cy="523.998" r="3.23508" fill="#25356A" fill-opacity="0.35"/>
<circle cx="152.693" cy="523.998" r="3.23508" fill="#25356A" fill-opacity="0.35"/>
<circle cx="1.72238" cy="534.782" r="3.23508" fill="#25356A" fill-opacity="0.35"/>
<circle cx="12.5061" cy="534.782" r="3.23508" fill="#25356A" fill-opacity="0.35"/>
<circle cx="23.2898" cy="534.782" r="3.23508" fill="#25356A" fill-opacity="0.35"/>
<circle cx="34.0735" cy="534.782" r="3.23508" fill="#25356A" fill-opacity="0.35"/>
<circle cx="44.8571" cy="534.782" r="3.23508" fill="#25356A" fill-opacity="0.35"/>
<circle cx="55.6408" cy="534.782" r="3.23508" fill="#25356A" fill-opacity="0.35"/>
<circle cx="66.4245" cy="534.782" r="3.23508" fill="#25356A" fill-opacity="0.35"/>
<circle cx="77.2077" cy="534.782" r="3.23508" fill="#25356A" fill-opacity="0.35"/>
<circle cx="87.9914" cy="534.782" r="3.23508" fill="#25356A" fill-opacity="0.35"/>
<circle cx="98.7751" cy="534.782" r="3.23508" fill="#25356A" fill-opacity="0.35"/>
<circle cx="120.342" cy="534.782" r="3.23508" fill="#25356A" fill-opacity="0.35"/>
<circle cx="131.126" cy="534.782" r="3.23508" fill="#25356A" fill-opacity="0.35"/>
<circle cx="141.91" cy="534.782" r="3.23508" fill="#25356A" fill-opacity="0.35"/>
<circle cx="152.693" cy="534.782" r="3.23508" fill="#25356A" fill-opacity="0.35"/>
<circle cx="1.72238" cy="545.565" r="3.23508" fill="#25356A" fill-opacity="0.35"/>
<circle cx="12.5061" cy="545.565" r="3.23508" fill="#25356A" fill-opacity="0.35"/>
<circle cx="23.2898" cy="545.565" r="3.23508" fill="#25356A" fill-opacity="0.35"/>
<circle cx="34.0735" cy="545.565" r="3.23508" fill="#25356A" fill-opacity="0.35"/>
<circle cx="44.8571" cy="545.565" r="3.23508" fill="#25356A" fill-opacity="0.35"/>
<circle cx="55.6408" cy="545.565" r="3.23508" fill="#25356A" fill-opacity="0.35"/>
<circle cx="66.4245" cy="545.565" r="3.23508" fill="#25356A" fill-opacity="0.35"/>
<circle cx="77.2077" cy="545.565" r="3.23508" fill="#25356A" fill-opacity="0.35"/>
<circle cx="87.9914" cy="545.565" r="3.23508" fill="#25356A" fill-opacity="0.35"/>
<circle cx="98.7751" cy="545.565" r="3.23508" fill="#25356A" fill-opacity="0.35"/>
<circle cx="109.559" cy="545.565" r="3.23508" fill="#25356A" fill-opacity="0.35"/>
<circle cx="120.342" cy="545.565" r="3.23508" fill="#25356A" fill-opacity="0.35"/>
<circle cx="141.91" cy="545.565" r="3.23508" fill="#25356A" fill-opacity="0.35"/>
<circle cx="152.693" cy="545.565" r="3.23508" fill="#25356A" fill-opacity="0.35"/>
<circle cx="1.72238" cy="556.349" r="3.23508" fill="#25356A" fill-opacity="0.35"/>
<circle cx="12.5061" cy="556.349" r="3.23508" fill="#25356A" fill-opacity="0.35"/>
<circle cx="23.2898" cy="556.349" r="3.23508" fill="#25356A" fill-opacity="0.35"/>
<circle cx="34.0735" cy="556.349" r="3.23508" fill="#25356A" fill-opacity="0.35"/>
<circle cx="44.8571" cy="556.349" r="3.23508" fill="#25356A" fill-opacity="0.35"/>
<circle cx="55.6408" cy="556.349" r="3.23508" fill="#25356A" fill-opacity="0.35"/>
<circle cx="66.4245" cy="556.349" r="3.23508" fill="#25356A" fill-opacity="0.35"/>
<circle cx="77.2077" cy="556.349" r="3.23508" fill="#25356A" fill-opacity="0.35"/>
<circle cx="87.9914" cy="556.349" r="3.23508" fill="#25356A" fill-opacity="0.35"/>
<circle cx="98.7751" cy="556.349" r="3.23508" fill="#25356A" fill-opacity="0.35"/>
<circle cx="109.559" cy="556.349" r="3.23508" fill="#25356A" fill-opacity="0.35"/>
<circle cx="120.342" cy="556.349" r="3.23508" fill="#25356A" fill-opacity="0.35"/>
<circle cx="131.126" cy="556.349" r="3.23508" fill="#25356A" fill-opacity="0.35"/>
<circle cx="152.693" cy="556.349" r="3.23508" fill="#25356A" fill-opacity="0.35"/>
<circle cx="1.72238" cy="567.133" r="3.23508" fill="#25356A" fill-opacity="0.35"/>
<circle cx="12.5061" cy="567.133" r="3.23508" fill="#25356A" fill-opacity="0.35"/>
<circle cx="23.2898" cy="567.133" r="3.23508" fill="#25356A" fill-opacity="0.35"/>
<circle cx="34.0735" cy="567.133" r="3.23508" fill="#25356A" fill-opacity="0.35"/>
<circle cx="44.8571" cy="567.133" r="3.23508" fill="#25356A" fill-opacity="0.35"/>
<circle cx="55.6408" cy="567.133" r="3.23508" fill="#25356A" fill-opacity="0.35"/>
<circle cx="66.4245" cy="567.133" r="3.23508" fill="#25356A" fill-opacity="0.35"/>
<circle cx="77.2077" cy="567.133" r="3.23508" fill="#25356A" fill-opacity="0.35"/>
<circle cx="87.9914" cy="567.133" r="3.23508" fill="#25356A" fill-opacity="0.35"/>
<circle cx="98.7751" cy="567.133" r="3.23508" fill="#25356A" fill-opacity="0.35"/>
<circle cx="109.559" cy="567.133" r="3.23508" fill="#25356A" fill-opacity="0.35"/>
<circle cx="120.342" cy="567.133" r="3.23508" fill="#25356A" fill-opacity="0.35"/>
<circle cx="131.126" cy="567.133" r="3.23508" fill="#25356A" fill-opacity="0.35"/>
<circle cx="141.91" cy="567.133" r="3.23508" fill="#25356A" fill-opacity="0.35"/>
<circle cx="152.693" cy="567.133" r="3.23508" fill="#25356A" fill-opacity="0.35"/>
<circle cx="1.72238" cy="577.916" r="3.23508" fill="#25356A" fill-opacity="0.35"/>
<circle cx="12.5061" cy="577.916" r="3.23508" fill="#25356A" fill-opacity="0.35"/>
<circle cx="23.2898" cy="577.916" r="3.23508" fill="#25356A" fill-opacity="0.35"/>
<circle cx="34.0735" cy="577.916" r="3.23508" fill="#25356A" fill-opacity="0.35"/>
<circle cx="44.8571" cy="577.916" r="3.23508" fill="#25356A" fill-opacity="0.35"/>
<circle cx="55.6408" cy="577.916" r="3.23508" fill="#25356A" fill-opacity="0.35"/>
<circle cx="66.4245" cy="577.916" r="3.23508" fill="#25356A" fill-opacity="0.35"/>
<circle cx="77.2077" cy="577.916" r="3.23508" fill="#25356A" fill-opacity="0.35"/>
<circle cx="87.9914" cy="577.916" r="3.23508" fill="#25356A" fill-opacity="0.35"/>
<circle cx="98.7751" cy="577.916" r="3.23508" fill="#25356A" fill-opacity="0.35"/>
<circle cx="109.559" cy="577.916" r="3.23508" fill="#25356A" fill-opacity="0.35"/>
<circle cx="120.342" cy="577.916" r="3.23508" fill="#25356A" fill-opacity="0.35"/>
<circle cx="131.126" cy="577.916" r="3.23508" fill="#25356A" fill-opacity="0.35"/>
<circle cx="141.91" cy="577.916" r="3.23508" fill="#25356A" fill-opacity="0.35"/>
<circle cx="1.72238" cy="588.7" r="3.23508" fill="#25356A" fill-opacity="0.35"/>
<circle cx="12.5061" cy="588.7" r="3.23508" fill="#25356A" fill-opacity="0.35"/>
<circle cx="23.2898" cy="588.7" r="3.23508" fill="#25356A" fill-opacity="0.35"/>
<circle cx="34.0735" cy="588.7" r="3.23508" fill="#25356A" fill-opacity="0.35"/>
<circle cx="44.8571" cy="588.7" r="3.23508" fill="#25356A" fill-opacity="0.35"/>
<circle cx="55.6408" cy="588.7" r="3.23508" fill="#25356A" fill-opacity="0.35"/>
<circle cx="66.4245" cy="588.7" r="3.23508" fill="#25356A" fill-opacity="0.35"/>
<circle cx="77.2077" cy="588.7" r="3.23508" fill="#25356A" fill-opacity="0.35"/>
<circle cx="87.9914" cy="588.7" r="3.23508" fill="#25356A" fill-opacity="0.35"/>
<circle cx="98.7751" cy="588.7" r="3.23508" fill="#25356A" fill-opacity="0.35"/>
<circle cx="109.559" cy="588.7" r="3.23508" fill="#25356A" fill-opacity="0.35"/>
<circle cx="120.342" cy="588.7" r="3.23508" fill="#25356A" fill-opacity="0.35"/>
<circle cx="131.126" cy="588.7" r="3.23508" fill="#25356A" fill-opacity="0.35"/>
<circle cx="141.91" cy="588.7" r="3.23508" fill="#25356A" fill-opacity="0.35"/>
<circle cx="1.72238" cy="599.483" r="3.23508" fill="#25356A" fill-opacity="0.35"/>
<circle cx="12.5061" cy="599.483" r="3.23508" fill="#25356A" fill-opacity="0.35"/>
<circle cx="23.2898" cy="599.483" r="3.23508" fill="#25356A" fill-opacity="0.35"/>
<circle cx="34.0735" cy="599.483" r="3.23508" fill="#25356A" fill-opacity="0.35"/>
<circle cx="44.8571" cy="599.483" r="3.23508" fill="#25356A" fill-opacity="0.35"/>
<circle cx="55.6408" cy="599.483" r="3.23508" fill="#25356A" fill-opacity="0.35"/>
<circle cx="66.4245" cy="599.483" r="3.23508" fill="#25356A" fill-opacity="0.35"/>
<circle cx="77.2077" cy="599.483" r="3.23508" fill="#25356A" fill-opacity="0.35"/>
<circle cx="87.9914" cy="599.483" r="3.23508" fill="#25356A" fill-opacity="0.35"/>
<circle cx="98.7751" cy="599.483" r="3.23508" fill="#25356A" fill-opacity="0.35"/>
<circle cx="109.559" cy="599.483" r="3.23508" fill="#25356A" fill-opacity="0.35"/>
<circle cx="120.342" cy="599.483" r="3.23508" fill="#25356A" fill-opacity="0.35"/>
<circle cx="131.126" cy="599.483" r="3.23508" fill="#25356A" fill-opacity="0.35"/>
<circle cx="141.91" cy="599.483" r="3.23508" fill="#25356A" fill-opacity="0.35"/>
<circle cx="152.693" cy="599.483" r="3.23508" fill="#25356A" fill-opacity="0.35"/>
<circle cx="1.72238" cy="610.267" r="3.23508" fill="#25356A" fill-opacity="0.35"/>
<circle cx="12.5061" cy="610.267" r="3.23508" fill="#25356A" fill-opacity="0.35"/>
<circle cx="23.2898" cy="610.267" r="3.23508" fill="#25356A" fill-opacity="0.35"/>
<circle cx="34.0735" cy="610.267" r="3.23508" fill="#25356A" fill-opacity="0.35"/>
<circle cx="44.8571" cy="610.267" r="3.23508" fill="#25356A" fill-opacity="0.35"/>
<circle cx="55.6408" cy="610.267" r="3.23508" fill="#25356A" fill-opacity="0.35"/>
<circle cx="66.4245" cy="610.267" r="3.23508" fill="#25356A" fill-opacity="0.35"/>
<circle cx="77.2077" cy="610.267" r="3.23508" fill="#25356A" fill-opacity="0.35"/>
<circle cx="87.9914" cy="610.267" r="3.23508" fill="#25356A" fill-opacity="0.35"/>
<circle cx="98.7751" cy="610.267" r="3.23508" fill="#25356A" fill-opacity="0.35"/>
<circle cx="109.559" cy="610.267" r="3.23508" fill="#25356A" fill-opacity="0.35"/>
<circle cx="120.342" cy="610.267" r="3.23508" fill="#25356A" fill-opacity="0.35"/>
<circle cx="131.126" cy="610.267" r="3.23508" fill="#25356A" fill-opacity="0.35"/>
<circle cx="141.91" cy="610.267" r="3.23508" fill="#25356A" fill-opacity="0.35"/>
<circle cx="1.72238" cy="621.051" r="3.23508" fill="#25356A" fill-opacity="0.35"/>
<circle cx="12.5061" cy="621.051" r="3.23508" fill="#25356A" fill-opacity="0.35"/>
<circle cx="23.2898" cy="621.051" r="3.23508" fill="#25356A" fill-opacity="0.35"/>
<circle cx="34.0735" cy="621.051" r="3.23508" fill="#25356A" fill-opacity="0.35"/>
<circle cx="44.8571" cy="621.051" r="3.23508" fill="#25356A" fill-opacity="0.35"/>
<circle cx="55.6408" cy="621.051" r="3.23508" fill="#25356A" fill-opacity="0.35"/>
<circle cx="66.4245" cy="621.051" r="3.23508" fill="#25356A" fill-opacity="0.35"/>
<circle cx="77.2077" cy="621.051" r="3.23508" fill="#25356A" fill-opacity="0.35"/>
<circle cx="87.9914" cy="621.051" r="3.23508" fill="#25356A" fill-opacity="0.35"/>
<circle cx="98.7751" cy="621.051" r="3.23508" fill="#25356A" fill-opacity="0.35"/>
<circle cx="109.559" cy="621.051" r="3.23508" fill="#25356A" fill-opacity="0.35"/>
<circle cx="120.342" cy="621.051" r="3.23508" fill="#25356A" fill-opacity="0.35"/>
<circle cx="131.126" cy="621.051" r="3.23508" fill="#25356A" fill-opacity="0.35"/>
<circle cx="141.91" cy="621.051" r="3.23508" fill="#25356A" fill-opacity="0.35"/>
<circle cx="1.72238" cy="631.834" r="3.23508" fill="#25356A" fill-opacity="0.35"/>
<circle cx="12.5061" cy="631.834" r="3.23508" fill="#25356A" fill-opacity="0.35"/>
<circle cx="23.2898" cy="631.834" r="3.23508" fill="#25356A" fill-opacity="0.35"/>
<circle cx="34.0735" cy="631.834" r="3.23508" fill="#25356A" fill-opacity="0.35"/>
<circle cx="44.8571" cy="631.834" r="3.23508" fill="#25356A" fill-opacity="0.35"/>
<circle cx="55.6408" cy="631.834" r="3.23508" fill="#25356A" fill-opacity="0.35"/>
<circle cx="66.4245" cy="631.834" r="3.23508" fill="#25356A" fill-opacity="0.35"/>
<circle cx="77.2077" cy="631.834" r="3.23508" fill="#25356A" fill-opacity="0.35"/>
<circle cx="87.9914" cy="631.834" r="3.23508" fill="#25356A" fill-opacity="0.35"/>
<circle cx="98.7751" cy="631.834" r="3.23508" fill="#25356A" fill-opacity="0.35"/>
<circle cx="109.559" cy="631.834" r="3.23508" fill="#25356A" fill-opacity="0.35"/>
<circle cx="120.342" cy="631.834" r="3.23508" fill="#25356A" fill-opacity="0.35"/>
<circle cx="131.126" cy="631.834" r="3.23508" fill="#25356A" fill-opacity="0.35"/>
<circle cx="141.91" cy="631.834" r="3.23508" fill="#25356A" fill-opacity="0.35"/>
<circle cx="152.693" cy="631.834" r="3.23508" fill="#25356A" fill-opacity="0.35"/>
<circle cx="1.72238" cy="642.618" r="3.23508" fill="#25356A" fill-opacity="0.35"/>
<circle cx="12.5061" cy="642.618" r="3.23508" fill="#25356A" fill-opacity="0.35"/>
<circle cx="23.2898" cy="642.618" r="3.23508" fill="#25356A" fill-opacity="0.35"/>
<circle cx="34.0735" cy="642.618" r="3.23508" fill="#25356A" fill-opacity="0.35"/>
<circle cx="44.8571" cy="642.618" r="3.23508" fill="#25356A" fill-opacity="0.35"/>
<circle cx="55.6408" cy="642.618" r="3.23508" fill="#25356A" fill-opacity="0.35"/>
<circle cx="66.4245" cy="642.618" r="3.23508" fill="#25356A" fill-opacity="0.35"/>
<circle cx="77.2077" cy="642.618" r="3.23508" fill="#25356A" fill-opacity="0.35"/>
<circle cx="87.9914" cy="642.618" r="3.23508" fill="#25356A" fill-opacity="0.35"/>
<circle cx="98.7751" cy="642.618" r="3.23508" fill="#25356A" fill-opacity="0.35"/>
<circle cx="109.559" cy="642.618" r="3.23508" fill="#25356A" fill-opacity="0.35"/>
<circle cx="120.342" cy="642.618" r="3.23508" fill="#25356A" fill-opacity="0.35"/>
<circle cx="131.126" cy="642.618" r="3.23508" fill="#25356A" fill-opacity="0.35"/>
<circle cx="141.91" cy="642.618" r="3.23508" fill="#25356A" fill-opacity="0.35"/>
<circle cx="152.693" cy="642.618" r="3.23508" fill="#25356A" fill-opacity="0.35"/>
<circle cx="1.72238" cy="653.401" r="3.23508" fill="#25356A" fill-opacity="0.35"/>
<circle cx="12.5061" cy="653.401" r="3.23508" fill="#25356A" fill-opacity="0.35"/>
<circle cx="23.2898" cy="653.401" r="3.23508" fill="#25356A" fill-opacity="0.35"/>
<circle cx="34.0735" cy="653.401" r="3.23508" fill="#25356A" fill-opacity="0.35"/>
<circle cx="44.8571" cy="653.401" r="3.23508" fill="#25356A" fill-opacity="0.35"/>
<circle cx="55.6408" cy="653.401" r="3.23508" fill="#25356A" fill-opacity="0.35"/>
<circle cx="66.4245" cy="653.401" r="3.23508" fill="#25356A" fill-opacity="0.35"/>
<circle cx="77.2077" cy="653.401" r="3.23508" fill="#25356A" fill-opacity="0.35"/>
<circle cx="87.9914" cy="653.401" r="3.23508" fill="#25356A" fill-opacity="0.35"/>
<circle cx="98.7751" cy="653.401" r="3.23508" fill="#25356A" fill-opacity="0.35"/>
<circle cx="109.559" cy="653.401" r="3.23508" fill="#25356A" fill-opacity="0.35"/>
<circle cx="120.342" cy="653.401" r="3.23508" fill="#25356A" fill-opacity="0.35"/>
<circle cx="131.126" cy="653.401" r="3.23508" fill="#25356A" fill-opacity="0.35"/>
<circle cx="141.91" cy="653.401" r="3.23508" fill="#25356A" fill-opacity="0.35"/>
<circle cx="152.693" cy="653.401" r="3.23508" fill="#25356A" fill-opacity="0.35"/>
<circle cx="1.72238" cy="664.185" r="3.23508" fill="#25356A" fill-opacity="0.35"/>
<circle cx="12.5061" cy="664.185" r="3.23508" fill="#25356A" fill-opacity="0.35"/>
<circle cx="23.2898" cy="664.185" r="3.23508" fill="#25356A" fill-opacity="0.35"/>
<circle cx="34.0735" cy="664.185" r="3.23508" fill="#25356A" fill-opacity="0.35"/>
<circle cx="44.8571" cy="664.185" r="3.23508" fill="#25356A" fill-opacity="0.35"/>
<circle cx="55.6408" cy="664.185" r="3.23508" fill="#25356A" fill-opacity="0.35"/>
<circle cx="66.4245" cy="664.185" r="3.23508" fill="#25356A" fill-opacity="0.35"/>
<circle cx="77.2077" cy="664.185" r="3.23508" fill="#25356A" fill-opacity="0.35"/>
<circle cx="87.9914" cy="664.185" r="3.23508" fill="#25356A" fill-opacity="0.35"/>
<circle cx="98.7751" cy="664.185" r="3.23508" fill="#25356A" fill-opacity="0.35"/>
<circle cx="109.559" cy="664.185" r="3.23508" fill="#25356A" fill-opacity="0.35"/>
<circle cx="120.342" cy="664.185" r="3.23508" fill="#25356A" fill-opacity="0.35"/>
<circle cx="131.126" cy="664.185" r="3.23508" fill="#25356A" fill-opacity="0.35"/>
<circle cx="141.91" cy="664.185" r="3.23508" fill="#25356A" fill-opacity="0.35"/>
<circle cx="152.693" cy="664.185" r="3.23508" fill="#25356A" fill-opacity="0.35"/>
<circle cx="1.72238" cy="674.969" r="3.23508" fill="#25356A" fill-opacity="0.35"/>
<circle cx="12.5061" cy="674.969" r="3.23508" fill="#25356A" fill-opacity="0.35"/>
<circle cx="23.2898" cy="674.969" r="3.23508" fill="#25356A" fill-opacity="0.35"/>
<circle cx="34.0735" cy="674.969" r="3.23508" fill="#25356A" fill-opacity="0.35"/>
<circle cx="44.8571" cy="674.969" r="3.23508" fill="#25356A" fill-opacity="0.35"/>
<circle cx="55.6408" cy="674.969" r="3.23508" fill="#25356A" fill-opacity="0.35"/>
<circle cx="66.4245" cy="674.969" r="3.23508" fill="#25356A" fill-opacity="0.35"/>
<circle cx="77.2077" cy="674.969" r="3.23508" fill="#25356A" fill-opacity="0.35"/>
<circle cx="87.9914" cy="674.969" r="3.23508" fill="#25356A" fill-opacity="0.35"/>
<circle cx="98.7751" cy="674.969" r="3.23508" fill="#25356A" fill-opacity="0.35"/>
<circle cx="109.559" cy="674.969" r="3.23508" fill="#25356A" fill-opacity="0.35"/>
<circle cx="120.342" cy="674.969" r="3.23508" fill="#25356A" fill-opacity="0.35"/>
<circle cx="131.126" cy="674.969" r="3.23508" fill="#25356A" fill-opacity="0.35"/>
<circle cx="141.91" cy="674.969" r="3.23508" fill="#25356A" fill-opacity="0.35"/>
<circle cx="152.693" cy="674.969" r="3.23508" fill="#25356A" fill-opacity="0.35"/>
<circle cx="1.72238" cy="685.752" r="3.23508" fill="#25356A" fill-opacity="0.35"/>
<circle cx="12.5061" cy="685.752" r="3.23508" fill="#25356A" fill-opacity="0.35"/>
<circle cx="23.2898" cy="685.752" r="3.23508" fill="#25356A" fill-opacity="0.35"/>
<circle cx="34.0735" cy="685.752" r="3.23508" fill="#25356A" fill-opacity="0.35"/>
<circle cx="44.8571" cy="685.752" r="3.23508" fill="#25356A" fill-opacity="0.35"/>
<circle cx="55.6408" cy="685.752" r="3.23508" fill="#25356A" fill-opacity="0.35"/>
<circle cx="66.4245" cy="685.752" r="3.23508" fill="#25356A" fill-opacity="0.35"/>
<circle cx="77.2077" cy="685.752" r="3.23508" fill="#25356A" fill-opacity="0.35"/>
<circle cx="87.9914" cy="685.752" r="3.23508" fill="#25356A" fill-opacity="0.35"/>
<circle cx="98.7751" cy="685.752" r="3.23508" fill="#25356A" fill-opacity="0.35"/>
<circle cx="109.559" cy="685.752" r="3.23508" fill="#25356A" fill-opacity="0.35"/>
<circle cx="120.342" cy="685.752" r="3.23508" fill="#25356A" fill-opacity="0.35"/>
<circle cx="131.126" cy="685.752" r="3.23508" fill="#25356A" fill-opacity="0.35"/>
<circle cx="141.91" cy="685.752" r="3.23508" fill="#25356A" fill-opacity="0.35"/>
<circle cx="152.693" cy="685.752" r="3.23508" fill="#25356A" fill-opacity="0.35"/>
<circle cx="1.72238" cy="696.536" r="3.23508" fill="#25356A" fill-opacity="0.35"/>
<circle cx="12.5061" cy="696.536" r="3.23508" fill="#25356A" fill-opacity="0.35"/>
<circle cx="23.2898" cy="696.536" r="3.23508" fill="#25356A" fill-opacity="0.35"/>
<circle cx="34.0735" cy="696.536" r="3.23508" fill="#25356A" fill-opacity="0.35"/>
<circle cx="44.8571" cy="696.536" r="3.23508" fill="#25356A" fill-opacity="0.35"/>
<circle cx="55.6408" cy="696.536" r="3.23508" fill="#25356A" fill-opacity="0.35"/>
<circle cx="66.4245" cy="696.536" r="3.23508" fill="#25356A" fill-opacity="0.35"/>
<circle cx="77.2077" cy="696.536" r="3.23508" fill="#25356A" fill-opacity="0.35"/>
<circle cx="87.9914" cy="696.536" r="3.23508" fill="#25356A" fill-opacity="0.35"/>
<circle cx="98.7751" cy="696.536" r="3.23508" fill="#25356A" fill-opacity="0.35"/>
<circle cx="109.559" cy="696.536" r="3.23508" fill="#25356A" fill-opacity="0.35"/>
<circle cx="120.342" cy="696.536" r="3.23508" fill="#25356A" fill-opacity="0.35"/>
<circle cx="131.126" cy="696.536" r="3.23508" fill="#25356A" fill-opacity="0.35"/>
<circle cx="141.91" cy="696.536" r="3.23508" fill="#25356A" fill-opacity="0.35"/>
<circle cx="152.693" cy="696.536" r="3.23508" fill="#25356A" fill-opacity="0.35"/>
<circle cx="1.72238" cy="707.32" r="3.23508" fill="#25356A" fill-opacity="0.35"/>
<circle cx="12.5061" cy="707.32" r="3.23508" fill="#25356A" fill-opacity="0.35"/>
<circle cx="23.2898" cy="707.32" r="3.23508" fill="#25356A" fill-opacity="0.35"/>
<circle cx="34.0735" cy="707.32" r="3.23508" fill="#25356A" fill-opacity="0.35"/>
<circle cx="44.8571" cy="707.32" r="3.23508" fill="#25356A" fill-opacity="0.35"/>
<circle cx="55.6408" cy="707.32" r="3.23508" fill="#25356A" fill-opacity="0.35"/>
<circle cx="66.4245" cy="707.32" r="3.23508" fill="#25356A" fill-opacity="0.35"/>
<circle cx="77.2077" cy="707.32" r="3.23508" fill="#25356A" fill-opacity="0.35"/>
<circle cx="87.9914" cy="707.32" r="3.23508" fill="#25356A" fill-opacity="0.35"/>
<circle cx="98.7751" cy="707.32" r="3.23508" fill="#25356A" fill-opacity="0.35"/>
<circle cx="109.559" cy="707.32" r="3.23508" fill="#25356A" fill-opacity="0.35"/>
<circle cx="120.342" cy="707.32" r="3.23508" fill="#25356A" fill-opacity="0.35"/>
<circle cx="131.126" cy="707.32" r="3.23508" fill="#25356A" fill-opacity="0.35"/>
<circle cx="141.91" cy="707.32" r="3.23508" fill="#25356A" fill-opacity="0.35"/>
<circle cx="152.693" cy="707.32" r="3.23508" fill="#25356A" fill-opacity="0.35"/>
</g>
<g opacity="0.91" filter="url(#filter1_d_203_219)">
<path d="M127.986 581.149C-26.8899 445.459 -82.5926 519.415 -87.5197 526.722C-87.7891 527.121 -87.8816 527.539 -87.8771 528.02L-86.6606 658.89C-85.7739 754.274 -5.83556 836.759 81.4862 798.37C126.28 778.677 167.266 746.625 185.109 694.508C210.234 621.121 140.528 592.137 127.986 581.149Z" fill="#D4E5F7" fill-opacity="0.39"/>
</g>
<defs>
<filter id="filter0_d_203_219" x="-98.0614" y="477.131" width="350.354" height="379.877" filterUnits="userSpaceOnUse" color-interpolation-filters="sRGB">
<feFlood flood-opacity="0" result="BackgroundImageFix"/>
<feColorMatrix in="SourceAlpha" type="matrix" values="0 0 0 0 0 0 0 0 0 0 0 0 0 0 0 0 0 0 127 0" result="hardAlpha"/>
<feOffset dx="13.0342" dy="13.0342"/>
<feGaussianBlur stdDeviation="17.9873"/>
<feColorMatrix type="matrix" values="0 0 0 0 0 0 0 0 0 0 0 0 0 0 0 0 0 0 0.04 0"/>
<feBlend mode="normal" in2="BackgroundImageFix" result="effect1_dropShadow_203_219"/>
<feBlend mode="normal" in="SourceGraphic" in2="effect1_dropShadow_203_219" result="shape"/>
</filter>
<filter id="filter1_d_203_219" x="-110.818" y="477.131" width="350.354" height="379.877" filterUnits="userSpaceOnUse" color-interpolation-filters="sRGB">
<feFlood flood-opacity="0" result="BackgroundImageFix"/>
<feColorMatrix in="SourceAlpha" type="matrix" values="0 0 0 0 0 0 0 0 0 0 0 0 0 0 0 0 0 0 127 0" result="hardAlpha"/>
<feOffset dx="13.0342" dy="13.0342"/>
<feGaussianBlur stdDeviation="17.9873"/>
<feColorMatrix type="matrix" values="0 0 0 0 0 0 0 0 0 0 0 0 0 0 0 0 0 0 0.04 0"/>
<feBlend mode="normal" in2="BackgroundImageFix" result="effect1_dropShadow_203_219"/>
<feBlend mode="normal" in="SourceGraphic" in2="effect1_dropShadow_203_219" result="shape"/>
</filter>
</defs>
</svg>
