<svg width="74" height="74" viewBox="0 0 74 74" fill="none" xmlns="http://www.w3.org/2000/svg">
<path d="M9.25 67.8333H64.75" stroke="#41597E" stroke-width="3.25433" stroke-linecap="round" stroke-linejoin="round"/>
<path d="M17.2666 25.8385H12.3333C10.6375 25.8385 9.25 27.226 9.25 28.9218V55.5001C9.25 57.196 10.6375 58.5835 12.3333 58.5835H17.2666C18.9624 58.5835 20.3499 57.196 20.3499 55.5001V28.9218C20.3499 27.226 18.9624 25.8385 17.2666 25.8385Z" stroke="#41597E" stroke-width="3.25433" stroke-linecap="round" stroke-linejoin="round"/>
<path d="M39.4668 16.0025H34.5335C32.8377 16.0025 31.4502 17.39 31.4502 19.0858V55.5C31.4502 57.1958 32.8377 58.5833 34.5335 58.5833H39.4668C41.1626 58.5833 42.5501 57.1958 42.5501 55.5V19.0858C42.5501 17.39 41.1626 16.0025 39.4668 16.0025Z" stroke="#41597E" stroke-width="3.25433" stroke-linecap="round" stroke-linejoin="round"/>
<path d="M61.667 6.16679H56.7337C55.0379 6.16679 53.6504 7.55429 53.6504 9.25012V55.5001C53.6504 57.196 55.0379 58.5835 56.7337 58.5835H61.667C63.3628 58.5835 64.7503 57.196 64.7503 55.5001V9.25012C64.7503 7.55429 63.3628 6.16679 61.667 6.16679Z" stroke="#41597E" stroke-width="3.25433" stroke-linecap="round" stroke-linejoin="round"/>
</svg>
