<svg width="57" height="57" viewBox="0 0 57 57" fill="none" xmlns="http://www.w3.org/2000/svg">
<path d="M7.2583 51.8519H49.3612" stroke="#41597E" stroke-width="3.25433" stroke-linecap="round" stroke-linejoin="round"/>
<path d="M13.3398 19.9942H9.59735C8.31087 19.9942 7.2583 21.0468 7.2583 22.3332V42.4958C7.2583 43.7823 8.31087 44.8349 9.59735 44.8349H13.3398C14.6262 44.8349 15.6788 43.7823 15.6788 42.4958V22.3332C15.6788 21.0468 14.6262 19.9942 13.3398 19.9942Z" stroke="#41597E" stroke-width="3.25433" stroke-linecap="round" stroke-linejoin="round"/>
<path d="M30.1811 12.5325H26.4387C25.1522 12.5325 24.0996 13.5851 24.0996 14.8716V42.4957C24.0996 43.7822 25.1522 44.8348 26.4387 44.8348H30.1811C31.4676 44.8348 32.5201 43.7822 32.5201 42.4957V14.8716C32.5201 13.5851 31.4676 12.5325 30.1811 12.5325Z" stroke="#41597E" stroke-width="3.25433" stroke-linecap="round" stroke-linejoin="round"/>
<path d="M47.0224 5.07104H43.28C41.9935 5.07104 40.9409 6.12362 40.9409 7.41009V42.4958C40.9409 43.7823 41.9935 44.8349 43.28 44.8349H47.0224C48.3089 44.8349 49.3614 43.7823 49.3614 42.4958V7.41009C49.3614 6.12362 48.3089 5.07104 47.0224 5.07104Z" stroke="#41597E" stroke-width="3.25433" stroke-linecap="round" stroke-linejoin="round"/>
</svg>
