<svg width="75" height="75" viewBox="0 0 75 75" fill="none" xmlns="http://www.w3.org/2000/svg">
<g clip-path="url(#clip0_203_169)">
<path d="M54.6541 25.9306C58.8452 25.9306 62.2428 22.533 62.2428 18.3419C62.2428 14.1508 58.8452 10.7532 54.6541 10.7532C50.463 10.7532 47.0654 14.1508 47.0654 18.3419C47.0654 22.533 50.463 25.9306 54.6541 25.9306Z" stroke="#41597E" stroke-width="3.25433" stroke-miterlimit="10" stroke-linecap="round" stroke-linejoin="round"/>
<path d="M20.474 25.9306C24.6651 25.9306 28.0626 22.533 28.0626 18.3419C28.0626 14.1508 24.6651 10.7532 20.474 10.7532C16.2828 10.7532 12.8853 14.1508 12.8853 18.3419C12.8853 22.533 16.2828 25.9306 20.474 25.9306Z" stroke="#41597E" stroke-width="3.25433" stroke-miterlimit="10" stroke-linecap="round" stroke-linejoin="round"/>
<path d="M54.6541 63.874C58.8452 63.874 62.2428 60.4764 62.2428 56.2853C62.2428 52.0942 58.8452 48.6966 54.6541 48.6966C50.463 48.6966 47.0654 52.0942 47.0654 56.2853C47.0654 60.4764 50.463 63.874 54.6541 63.874Z" stroke="#41597E" stroke-width="3.25433" stroke-miterlimit="10" stroke-linecap="round" stroke-linejoin="round"/>
<path d="M20.474 63.874C24.6651 63.874 28.0626 60.4764 28.0626 56.2853C28.0626 52.0942 24.6651 48.6966 20.474 48.6966C16.2828 48.6966 12.8853 52.0942 12.8853 56.2853C12.8853 60.4764 16.2828 63.874 20.474 63.874Z" stroke="#41597E" stroke-width="3.25433" stroke-miterlimit="10" stroke-linecap="round" stroke-linejoin="round"/>
</g>
<defs>
<clipPath id="clip0_203_169">
<rect width="74.0359" height="74.0359" fill="white" transform="translate(0.545898 0.295654)"/>
</clipPath>
</defs>
</svg>
