<svg width="74" height="74" viewBox="0 0 74 74" fill="none" xmlns="http://www.w3.org/2000/svg">
<path d="M27.7497 58.5834C27.7497 60.8959 27.1022 63.0851 25.9613 64.9351C23.8338 68.5118 19.918 70.9168 15.4163 70.9168C10.9147 70.9168 6.99885 68.5118 4.87135 64.9351C3.73051 63.0851 3.08301 60.8959 3.08301 58.5834C3.08301 51.7693 8.60217 46.2501 15.4163 46.2501C22.2305 46.2501 27.7497 51.7693 27.7497 58.5834Z" stroke="#41597E" stroke-width="3.25433" stroke-miterlimit="10" stroke-linecap="round" stroke-linejoin="round"/>
<path d="M10.6104 58.5821L13.6629 61.6345L20.2304 55.5605" stroke="#41597E" stroke-width="3.25433" stroke-linecap="round" stroke-linejoin="round"/>
<path d="M54.7332 21.7376C53.9932 21.6142 53.2224 21.5834 52.4207 21.5834H21.5873C20.724 21.5834 19.8915 21.6451 19.0898 21.7684C19.5215 20.9051 20.1382 20.1035 20.8782 19.3635L30.899 9.31182C35.1232 5.11848 41.9682 5.11848 46.1924 9.31182L51.5882 14.7692C53.5615 16.7117 54.6099 19.1784 54.7332 21.7376Z" stroke="#41597E" stroke-width="3.25433" stroke-linecap="round" stroke-linejoin="round"/>
<path d="M67.8332 37V52.4167C67.8332 61.6667 61.6665 67.8334 52.4165 67.8334H23.5257C24.4815 67.0317 25.314 66.045 25.9615 64.935C27.1023 63.085 27.7498 60.8959 27.7498 58.5834C27.7498 51.7692 22.2307 46.25 15.4165 46.25C11.7165 46.25 8.41734 47.8842 6.1665 50.4433V37C6.1665 28.6134 11.2232 22.755 19.0857 21.7684C19.8873 21.645 20.7198 21.5834 21.5832 21.5834H52.4165C53.2182 21.5834 53.989 21.6142 54.729 21.7375C62.684 22.6625 67.8332 28.5517 67.8332 37Z" stroke="#41597E" stroke-width="3.25433" stroke-linecap="round" stroke-linejoin="round"/>
<path d="M67.8332 38.5418H58.5832C55.1915 38.5418 52.4165 41.3168 52.4165 44.7085C52.4165 48.1002 55.1915 50.8752 58.5832 50.8752H67.8332" stroke="#41597E" stroke-width="3.25433" stroke-linecap="round" stroke-linejoin="round"/>
</svg>
