<svg width="93" height="93" viewBox="0 0 93 93" fill="none" xmlns="http://www.w3.org/2000/svg">
<path d="M35.2399 72.927C35.2399 75.7999 34.4355 78.5196 33.0181 80.818C30.375 85.2615 25.5101 88.2494 19.9174 88.2494C14.3247 88.2494 9.45986 85.2615 6.81673 80.818C5.39941 78.5196 4.59497 75.7999 4.59497 72.927C4.59497 64.4613 11.4518 57.6045 19.9174 57.6045C28.3831 57.6045 35.2399 64.4613 35.2399 72.927Z" stroke="#41597E" stroke-width="3.25433" stroke-miterlimit="10" stroke-linecap="round" stroke-linejoin="round"/>
<path d="M13.9468 72.9253L17.7391 76.7175L25.8983 69.1713" stroke="#41597E" stroke-width="3.25433" stroke-linecap="round" stroke-linejoin="round"/>
<path d="M68.7631 27.151C67.8438 26.9978 66.8861 26.9595 65.8902 26.9595H27.584C26.5114 26.9595 25.4772 27.0362 24.4812 27.1894C25.0175 26.1168 25.7836 25.121 26.703 24.2016L39.1525 11.7138C44.4004 6.50414 52.9044 6.50414 58.1523 11.7138L64.8559 18.4938C67.3075 20.9071 68.6099 23.9716 68.7631 27.151Z" stroke="#41597E" stroke-width="3.25433" stroke-linecap="round" stroke-linejoin="round"/>
<path d="M85.0378 46.1126V65.2657C85.0378 76.7575 77.3766 84.4187 65.8848 84.4187H29.9919C31.1794 83.4228 32.2136 82.197 33.0181 80.8179C34.4354 78.5196 35.2398 75.7998 35.2398 72.9269C35.2398 64.4612 28.383 57.6044 19.9174 57.6044C15.3206 57.6044 11.2219 59.6346 8.42554 62.814V46.1126C8.42554 35.6933 14.7077 28.4151 24.4758 27.1893C25.4718 27.0361 26.506 26.9595 27.5786 26.9595H65.8848C66.8807 26.9595 67.8384 26.9978 68.7577 27.151C78.6407 28.3002 85.0378 35.6167 85.0378 46.1126Z" stroke="#41597E" stroke-width="3.25433" stroke-linecap="round" stroke-linejoin="round"/>
<path d="M85.0378 48.028H73.546C69.3323 48.028 65.8848 51.4756 65.8848 55.6892C65.8848 59.9029 69.3323 63.3505 73.546 63.3505H85.0378" stroke="#41597E" stroke-width="3.25433" stroke-linecap="round" stroke-linejoin="round"/>
</svg>
