<svg width="25" height="25" viewBox="0 0 25 25" fill="none" xmlns="http://www.w3.org/2000/svg">
<g id="facebook-logo 1" clip-path="url(#clip0_873_1254)">
<g id="Group">
<path id="Vector" d="M18.0687 0.592364L14.9441 0.587402C11.4338 0.587402 9.16519 2.89105 9.16519 6.45655V9.16262H6.02354C5.75206 9.16262 5.53223 9.38045 5.53223 9.64915V13.5699C5.53223 13.8386 5.75232 14.0562 6.02354 14.0562H9.16519V23.9496C9.16519 24.2183 9.38503 24.4359 9.6565 24.4359H13.7555C14.0269 24.4359 14.2468 24.2181 14.2468 23.9496V14.0562H17.9201C18.1916 14.0562 18.4114 13.8386 18.4114 13.5699L18.4129 9.64915C18.4129 9.52013 18.361 9.39658 18.269 9.30528C18.177 9.21397 18.0517 9.16262 17.9214 9.16262H14.2468V6.86865C14.2468 5.76607 14.5122 5.20635 15.9634 5.20635L18.0682 5.20561C18.3395 5.20561 18.5593 4.98777 18.5593 4.71932V1.07865C18.5593 0.810448 18.3397 0.592861 18.0687 0.592364Z" fill="white"/>
</g>
</g>
<defs>
<clipPath id="clip0_873_1254">
<rect width="24.0954" height="23.8485" fill="white" transform="translate(0 0.587646)"/>
</clipPath>
</defs>
</svg>
