<svg width="21" height="21" viewBox="0 0 21 21" fill="none" xmlns="http://www.w3.org/2000/svg">
<g id="Instagram Icon">
<path id="Vector" d="M10.2401 3.41772C8.29317 3.41772 8.04884 3.42615 7.28418 3.46059C6.52102 3.49518 6.0001 3.61477 5.54429 3.79024C5.0728 3.97147 4.67285 4.2139 4.27439 4.60844C3.87563 5.00283 3.6307 5.3987 3.44701 5.86522C3.26928 6.31653 3.14831 6.83228 3.11396 7.58736C3.07976 8.34421 3.0708 8.5862 3.0708 10.5132C3.0708 12.4402 3.07946 12.6813 3.11411 13.4382C3.14921 14.1936 3.27003 14.7092 3.44716 15.1603C3.6304 15.627 3.87533 16.0229 4.27394 16.4172C4.67225 16.8119 5.0722 17.055 5.54339 17.2362C5.9995 17.4117 6.52057 17.5312 7.28359 17.5658C8.04824 17.6003 8.29243 17.6087 10.2392 17.6087C12.1862 17.6087 12.4298 17.6003 13.1945 17.5658C13.9576 17.5312 14.4791 17.4117 14.9352 17.2362C15.4066 17.055 15.8059 16.8119 16.2042 16.4172C16.603 16.0229 16.8479 15.627 17.0316 15.1605C17.2079 14.7092 17.3288 14.1934 17.3647 13.4383C17.399 12.6815 17.408 12.4402 17.408 10.5132C17.408 8.5862 17.399 8.34436 17.3647 7.58751C17.3288 6.83213 17.2079 6.31653 17.0316 5.86537C16.8479 5.3987 16.603 5.00283 16.2042 4.60844C15.8055 4.21375 15.4067 3.97132 14.9348 3.79024C14.4778 3.61477 13.9566 3.49518 13.1934 3.46059C12.4287 3.42615 12.1853 3.41772 10.2378 3.41772H10.2401ZM9.59698 4.69639C9.78784 4.69609 10.0008 4.69639 10.2401 4.69639C12.1541 4.69639 12.381 4.70319 13.1368 4.73719C13.8357 4.76882 14.2151 4.88442 14.4678 4.98154C14.8023 5.11015 15.0408 5.26388 15.2916 5.51222C15.5425 5.76057 15.6978 5.99708 15.828 6.3282C15.9262 6.57803 16.0431 6.95349 16.0749 7.6453C16.1093 8.39329 16.1167 8.61798 16.1167 10.5116C16.1167 12.4052 16.1093 12.6299 16.0749 13.3779C16.043 14.0697 15.9262 14.4451 15.828 14.695C15.6981 15.0261 15.5425 15.2619 15.2916 15.5101C15.0407 15.7584 14.8025 15.9121 14.4678 16.0407C14.2154 16.1383 13.8357 16.2536 13.1368 16.2852C12.3811 16.3192 12.1541 16.3266 10.2401 16.3266C8.32588 16.3266 8.09902 16.3192 7.34333 16.2852C6.64438 16.2533 6.26504 16.1377 6.01219 16.0406C5.67766 15.912 5.4387 15.7583 5.1878 15.5099C4.93689 15.2616 4.78157 15.0256 4.65134 14.6944C4.55322 14.4446 4.43628 14.0691 4.40447 13.3773C4.37012 12.6293 4.36325 12.4046 4.36325 10.5098C4.36325 8.61502 4.37012 8.39151 4.40447 7.64353C4.43643 6.95172 4.55322 6.57625 4.65134 6.32614C4.78127 5.99501 4.93689 5.7585 5.1878 5.51015C5.4387 5.26181 5.67766 5.10808 6.01219 4.97918C6.26489 4.88161 6.64438 4.76631 7.34333 4.73453C8.00464 4.70496 8.26092 4.6961 9.59698 4.69462V4.69639ZM14.0666 5.87454C13.5917 5.87454 13.2064 6.25548 13.2064 6.7257C13.2064 7.19578 13.5917 7.57716 14.0666 7.57716C14.5416 7.57716 14.9269 7.19578 14.9269 6.7257C14.9269 6.25562 14.5416 5.87424 14.0666 5.87424V5.87454ZM10.2401 6.86938C8.207 6.86938 6.55866 8.5009 6.55866 10.5132C6.55866 12.5255 8.207 14.1563 10.2401 14.1563C12.2731 14.1563 13.9209 12.5255 13.9209 10.5132C13.9209 8.5009 12.273 6.86938 10.2399 6.86938H10.2401ZM10.2401 8.14805C11.5597 8.14805 12.6296 9.2069 12.6296 10.5132C12.6296 11.8194 11.5597 12.8784 10.2401 12.8784C8.92028 12.8784 7.85051 11.8194 7.85051 10.5132C7.85051 9.2069 8.92028 8.14805 10.2401 8.14805Z" fill="white"/>
</g>
</svg>
