<svg width="26" height="21" viewBox="0 0 26 21" fill="none" xmlns="http://www.w3.org/2000/svg">
<g id="LinkedIn Icon" clip-path="url(#clip0_873_1257)">
<path id="Path 2525" d="M23.868 19.5895C23.9197 19.59 23.9709 19.5801 24.0185 19.5604C24.0662 19.5407 24.1092 19.5116 24.1448 19.4749C24.1805 19.4383 24.2081 19.3948 24.226 19.3472C24.2438 19.2997 24.2514 19.249 24.2484 19.1985C24.2484 18.9211 24.0777 18.7886 23.7274 18.7886H23.1614V20.2407H23.3743V19.6077H23.6359L23.6419 19.6154L24.0478 20.2407H24.2755L23.8387 19.5935L23.868 19.5895ZM23.6217 19.4441H23.3749V18.9531H23.6878C23.8494 18.9531 24.0337 18.979 24.0337 19.1864C24.0337 19.425 23.8472 19.4441 23.6205 19.4441" fill="white"/>
<path id="Path 2520" d="M18.314 17.7699H15.2952V13.1367C15.2952 12.0319 15.2751 10.6097 13.7251 10.6097C12.1528 10.6097 11.9122 11.8134 11.9122 13.0563V17.7696H8.89333V8.24193H11.7914V9.54398H11.832C12.122 9.058 12.5411 8.65821 13.0447 8.38719C13.5482 8.11616 14.1173 7.98406 14.6914 8.00494C17.7511 8.00494 18.3153 9.97728 18.3153 12.5432L18.314 17.7699ZM5.48708 6.93957C5.14059 6.93963 4.80186 6.839 4.51373 6.6504C4.2256 6.4618 4.00103 6.1937 3.86837 5.88001C3.73572 5.56632 3.70096 5.22112 3.76849 4.88807C3.83603 4.55502 4.00283 4.24908 4.24779 4.00892C4.49275 3.76877 4.80487 3.6052 5.14469 3.5389C5.48451 3.47259 5.83675 3.50653 6.15689 3.63642C6.47702 3.76631 6.75067 3.98631 6.94322 4.26862C7.13577 4.55092 7.23858 4.88284 7.23864 5.2224C7.23868 5.44786 7.1934 5.67112 7.1054 5.87944C7.0174 6.08775 6.8884 6.27704 6.72576 6.4365C6.56311 6.59595 6.36999 6.72245 6.15746 6.80876C5.94493 6.89508 5.71714 6.93953 5.48708 6.93957ZM6.9965 17.7699H3.97451V8.24193H6.9965V17.7699ZM19.819 0.75844H2.45755C2.06349 0.754082 1.68377 0.903221 1.40186 1.17308C1.11995 1.44295 0.958911 1.81146 0.954102 2.19763V19.2827C0.958746 19.6691 1.11969 20.0379 1.40159 20.308C1.6835 20.5781 2.0633 20.7276 2.45755 20.7235H19.819C20.2141 20.7283 20.5949 20.5793 20.878 20.3092C21.161 20.039 21.323 19.6699 21.3285 19.2827V2.1964C21.3228 1.80946 21.1607 1.44053 20.8777 1.17067C20.5946 0.900816 20.2139 0.752104 19.819 0.757207" fill="white"/>
<path id="Path 2526" d="M23.6472 18.1416C23.2799 18.1451 22.9289 18.2909 22.6711 18.5473C22.4132 18.8037 22.2695 19.1497 22.2713 19.5096C22.273 19.8696 22.4202 20.2142 22.6805 20.4681C22.9409 20.722 23.2932 20.8646 23.6605 20.8646C24.0279 20.8646 24.3802 20.722 24.6406 20.4681C24.9009 20.2142 25.0481 19.8696 25.0498 19.5096C25.0516 19.1497 24.9078 18.8037 24.65 18.5473C24.3922 18.2909 24.0412 18.1451 23.6739 18.1416H23.6472ZM23.6472 20.7087C23.4063 20.7126 23.1696 20.6465 22.9671 20.5186C22.7645 20.3907 22.6052 20.2068 22.5093 19.9902C22.4134 19.7736 22.3852 19.5339 22.4283 19.3016C22.4714 19.0693 22.5838 18.8547 22.7513 18.685C22.9188 18.5153 23.1339 18.398 23.3694 18.3481C23.6049 18.2982 23.8502 18.3178 24.0743 18.4046C24.2984 18.4913 24.4912 18.6412 24.6284 18.8353C24.7656 19.0294 24.8409 19.259 24.845 19.4951C24.845 19.5019 24.845 19.5084 24.845 19.5151C24.8517 19.8249 24.7327 20.1245 24.514 20.3482C24.2953 20.5719 23.995 20.7014 23.6789 20.7081H23.6475" fill="white"/>
</g>
<defs>
<clipPath id="clip0_873_1257">
<rect width="24.0954" height="20.1321" fill="white" transform="translate(0.954102 0.756836)"/>
</clipPath>
</defs>
</svg>
